<?xml version="1.0" encoding="UTF-8" standalone="no"?>
<!DOCTYPE svg PUBLIC "-//W3C//DTD SVG 1.1//EN"
 "http://www.w3.org/Graphics/SVG/1.1/DTD/svg11.dtd">
<!-- Generated by graphviz version 2.43.0 (0)
 -->
<!-- Title: Samstraumr Code Diagram Pages: 1 -->
<svg width="1034pt" height="885pt"
 viewBox="0.00 0.00 1034.00 885.00" xmlns="http://www.w3.org/2000/svg" xmlns:xlink="http://www.w3.org/1999/xlink">
<g id="graph0" class="graph" transform="scale(1 1) rotate(0) translate(144 741)">
<title>Samstraumr Code Diagram</title>
<polygon fill="white" stroke="transparent" points="-144,144 -144,-741 890,-741 890,144 -144,144"/>
<text text-anchor="middle" x="373" y="-9" font-family="Sans-Serif" font-size="15.00" fill="#2d3436">Samstraumr Code Diagram</text>
<g id="clust1" class="cluster">
<title>cluster_Domain Model</title>
<path fill="#e5f5fd" stroke="#aeb6be" d="M56,-33C56,-33 294,-33 294,-33 300,-33 306,-39 306,-45 306,-45 306,-386 306,-386 306,-392 300,-398 294,-398 294,-398 56,-398 56,-398 50,-398 44,-392 44,-386 44,-386 44,-45 44,-45 44,-39 50,-33 56,-33"/>
<text text-anchor="middle" x="95.5" y="-384.4" font-family="Sans-Serif" font-size="12.00" fill="#2d3436">Domain Model</text>
</g>
<g id="clust2" class="cluster">
<title>cluster_Domain Services</title>
<path fill="#e5f5fd" stroke="#aeb6be" d="M20,-415C20,-415 546,-415 546,-415 552,-415 558,-421 558,-427 558,-427 558,-577 558,-577 558,-583 552,-589 546,-589 546,-589 20,-589 20,-589 14,-589 8,-583 8,-577 8,-577 8,-427 8,-427 8,-421 14,-415 20,-415"/>
<text text-anchor="middle" x="66.5" y="-575.4" font-family="Sans-Serif" font-size="12.00" fill="#2d3436">Domain Services</text>
</g>
<g id="clust3" class="cluster">
<title>cluster_Repositories</title>
<path fill="#e5f5fd" stroke="#aeb6be" d="M344,-33C344,-33 726,-33 726,-33 732,-33 738,-39 738,-45 738,-45 738,-195 738,-195 738,-201 732,-207 726,-207 726,-207 344,-207 344,-207 338,-207 332,-201 332,-195 332,-195 332,-45 332,-45 332,-39 338,-33 344,-33"/>
<text text-anchor="middle" x="376.5" y="-193.4" font-family="Sans-Serif" font-size="12.00" fill="#2d3436">Repositories</text>
</g>
<!-- 449c8a0ee42443889754b39a50df2c2f -->
<g id="node1" class="node">
<title>449c8a0ee42443889754b39a50df2c2f</title>
<image xlink:href="/home/emumford/.local/lib/python3.13/site-packages/resources/programming/language/java.png" width="101px" height="101px" preserveAspectRatio="xMinYMin meet" x="52.5" y="-351"/>
<text text-anchor="middle" x="103" y="-235.6" font-family="Sans-Serif" font-size="13.00" fill="#2d3436">Tube</text>
</g>
<!-- 844967397c984c89a213176e1a39e103 -->
<g id="node3" class="node">
<title>844967397c984c89a213176e1a39e103</title>
<image xlink:href="/home/emumford/.local/lib/python3.13/site-packages/resources/programming/language/java.png" width="101px" height="101px" preserveAspectRatio="xMinYMin meet" x="196.5" y="-160"/>
<text text-anchor="middle" x="247" y="-44.6" font-family="Sans-Serif" font-size="13.00" fill="#2d3436">Identity</text>
</g>
<!-- 449c8a0ee42443889754b39a50df2c2f&#45;&gt;844967397c984c89a213176e1a39e103 -->
<g id="edge10" class="edge">
<title>449c8a0ee42443889754b39a50df2c2f&#45;&gt;844967397c984c89a213176e1a39e103</title>
<path fill="none" stroke="#7b8894" d="M113.1,-231.77C113.1,-209.77 113.1,-191 113.1,-191 113.1,-191 247,-191 247,-191 247,-191 247,-188.27 247,-188.27"/>
<polygon fill="#7b8894" stroke="#7b8894" points="250.5,-188.27 247,-178.27 243.5,-188.27 250.5,-188.27"/>
</g>
<!-- 1a290bc5123c40ac9c9fce8c616f4ff3 -->
<g id="node4" class="node">
<title>1a290bc5123c40ac9c9fce8c616f4ff3</title>
<image xlink:href="/home/emumford/.local/lib/python3.13/site-packages/resources/programming/language/java.png" width="101px" height="101px" preserveAspectRatio="xMinYMin meet" x="52.5" y="-160"/>
<text text-anchor="middle" x="103" y="-44.6" font-family="Sans-Serif" font-size="13.00" fill="#2d3436">LifecycleState</text>
</g>
<!-- 449c8a0ee42443889754b39a50df2c2f&#45;&gt;1a290bc5123c40ac9c9fce8c616f4ff3 -->
<g id="edge8" class="edge">
<title>449c8a0ee42443889754b39a50df2c2f&#45;&gt;1a290bc5123c40ac9c9fce8c616f4ff3</title>
<path fill="none" stroke="#7b8894" d="M72.7,-231.81C72.7,-231.81 72.7,-188.22 72.7,-188.22"/>
<polygon fill="#7b8894" stroke="#7b8894" points="76.2,-188.22 72.7,-178.22 69.2,-188.22 76.2,-188.22"/>
</g>
<!-- 3c6110a3643a41ef9dd54d98c5ae9ace -->
<g id="node9" class="node">
<title>3c6110a3643a41ef9dd54d98c5ae9ace</title>
<image xlink:href="/home/emumford/.local/lib/python3.13/site-packages/resources/programming/language/java.png" width="101px" height="101px" preserveAspectRatio="xMinYMin meet" x="340.5" y="-160"/>
<text text-anchor="middle" x="391" y="-44.6" font-family="Sans-Serif" font-size="13.00" fill="#2d3436">TubeRepository</text>
</g>
<!-- 449c8a0ee42443889754b39a50df2c2f&#45;&gt;3c6110a3643a41ef9dd54d98c5ae9ace -->
<g id="edge2" class="edge">
<title>449c8a0ee42443889754b39a50df2c2f&#45;&gt;3c6110a3643a41ef9dd54d98c5ae9ace</title>
<path fill="none" stroke="#7b8894" d="M133.3,-231.86C133.3,-216.67 133.3,-205 133.3,-205 133.3,-205 373,-205 373,-205 373,-205 373,-188.14 373,-188.14"/>
<polygon fill="#7b8894" stroke="#7b8894" points="376.5,-188.14 373,-178.14 369.5,-188.14 376.5,-188.14"/>
</g>
<!-- 68ad2b539c0d425b8aa4d0f48b6fac81 -->
<g id="node2" class="node">
<title>68ad2b539c0d425b8aa4d0f48b6fac81</title>
<image xlink:href="/home/emumford/.local/lib/python3.13/site-packages/resources/programming/language/java.png" width="101px" height="101px" preserveAspectRatio="xMinYMin meet" x="196.5" y="-351"/>
<text text-anchor="middle" x="247" y="-235.6" font-family="Sans-Serif" font-size="13.00" fill="#2d3436">Component</text>
</g>
<!-- 68ad2b539c0d425b8aa4d0f48b6fac81&#45;&gt;844967397c984c89a213176e1a39e103 -->
<g id="edge11" class="edge">
<title>68ad2b539c0d425b8aa4d0f48b6fac81&#45;&gt;844967397c984c89a213176e1a39e103</title>
<path fill="none" stroke="#7b8894" d="M272.25,-231.81C272.25,-231.81 272.25,-188.22 272.25,-188.22"/>
<polygon fill="#7b8894" stroke="#7b8894" points="275.75,-188.22 272.25,-178.22 268.75,-188.22 275.75,-188.22"/>
</g>
<!-- 68ad2b539c0d425b8aa4d0f48b6fac81&#45;&gt;1a290bc5123c40ac9c9fce8c616f4ff3 -->
<g id="edge9" class="edge">
<title>68ad2b539c0d425b8aa4d0f48b6fac81&#45;&gt;1a290bc5123c40ac9c9fce8c616f4ff3</title>
<path fill="none" stroke="#7b8894" d="M221.75,-232C221.75,-223.65 221.75,-218 221.75,-218 221.75,-218 92.9,-218 92.9,-218 92.9,-218 92.9,-188.21 92.9,-188.21"/>
<polygon fill="#7b8894" stroke="#7b8894" points="96.4,-188.21 92.9,-178.21 89.4,-188.21 96.4,-188.21"/>
</g>
<!-- b27504a944dc4ed19e3793b1418141e6 -->
<g id="node10" class="node">
<title>b27504a944dc4ed19e3793b1418141e6</title>
<image xlink:href="/home/emumford/.local/lib/python3.13/site-packages/resources/programming/language/java.png" width="101px" height="101px" preserveAspectRatio="xMinYMin meet" x="484.5" y="-160"/>
<text text-anchor="middle" x="535" y="-44.6" font-family="Sans-Serif" font-size="13.00" fill="#2d3436">ComponentRepository</text>
</g>
<!-- 68ad2b539c0d425b8aa4d0f48b6fac81&#45;&gt;b27504a944dc4ed19e3793b1418141e6 -->
<g id="edge4" class="edge">
<title>68ad2b539c0d425b8aa4d0f48b6fac81&#45;&gt;b27504a944dc4ed19e3793b1418141e6</title>
<path fill="none" stroke="#7b8894" d="M297.78,-259C376,-259 517,-259 517,-259 517,-259 517,-188.12 517,-188.12"/>
<polygon fill="#7b8894" stroke="#7b8894" points="520.5,-188.12 517,-178.12 513.5,-188.12 520.5,-188.12"/>
</g>
<!-- 5143a81ed32241819a8aec1928493000 -->
<g id="node11" class="node">
<title>5143a81ed32241819a8aec1928493000</title>
<image xlink:href="/home/emumford/.local/lib/python3.13/site-packages/resources/programming/language/java.png" width="101px" height="101px" preserveAspectRatio="xMinYMin meet" x="628.5" y="-160"/>
<text text-anchor="middle" x="679" y="-44.6" font-family="Sans-Serif" font-size="13.00" fill="#2d3436">MachineRepository</text>
</g>
<!-- 68ad2b539c0d425b8aa4d0f48b6fac81&#45;&gt;5143a81ed32241819a8aec1928493000 -->
<g id="edge6" class="edge">
<title>68ad2b539c0d425b8aa4d0f48b6fac81&#45;&gt;5143a81ed32241819a8aec1928493000</title>
<path fill="none" stroke="#7b8894" d="M297.83,-286C412.02,-286 679,-286 679,-286 679,-286 679,-188.24 679,-188.24"/>
<polygon fill="#7b8894" stroke="#7b8894" points="682.5,-188.24 679,-178.24 675.5,-188.24 682.5,-188.24"/>
</g>
<!-- 9840f359e22f49bf81e149900d6d44ab -->
<g id="node5" class="node">
<title>9840f359e22f49bf81e149900d6d44ab</title>
<image xlink:href="/home/emumford/.local/lib/python3.13/site-packages/resources/programming/language/java.png" width="101px" height="101px" preserveAspectRatio="xMinYMin meet" x="16.5" y="-542"/>
<text text-anchor="middle" x="67" y="-426.6" font-family="Sans-Serif" font-size="13.00" fill="#2d3436">TubeFactory</text>
</g>
<!-- 9840f359e22f49bf81e149900d6d44ab&#45;&gt;449c8a0ee42443889754b39a50df2c2f -->
<g id="edge1" class="edge">
<title>9840f359e22f49bf81e149900d6d44ab&#45;&gt;449c8a0ee42443889754b39a50df2c2f</title>
<path fill="none" stroke="#7b8894" d="M85,-422.81C85,-422.81 85,-379.22 85,-379.22"/>
<polygon fill="#7b8894" stroke="#7b8894" points="88.5,-379.22 85,-369.22 81.5,-379.22 88.5,-379.22"/>
</g>
<!-- e99205b241ab4678a49ee2dc0ac5dfc2 -->
<g id="node6" class="node">
<title>e99205b241ab4678a49ee2dc0ac5dfc2</title>
<image xlink:href="/home/emumford/.local/lib/python3.13/site-packages/resources/programming/language/java.png" width="101px" height="101px" preserveAspectRatio="xMinYMin meet" x="160.5" y="-542"/>
<text text-anchor="middle" x="211" y="-426.6" font-family="Sans-Serif" font-size="13.00" fill="#2d3436">ComponentFactory</text>
</g>
<!-- e99205b241ab4678a49ee2dc0ac5dfc2&#45;&gt;68ad2b539c0d425b8aa4d0f48b6fac81 -->
<g id="edge3" class="edge">
<title>e99205b241ab4678a49ee2dc0ac5dfc2&#45;&gt;68ad2b539c0d425b8aa4d0f48b6fac81</title>
<path fill="none" stroke="#7b8894" d="M229,-422.81C229,-422.81 229,-379.22 229,-379.22"/>
<polygon fill="#7b8894" stroke="#7b8894" points="232.5,-379.22 229,-369.22 225.5,-379.22 232.5,-379.22"/>
</g>
<!-- 3ed5a7cd2f3c45c586ca1003a3cbf986 -->
<g id="node7" class="node">
<title>3ed5a7cd2f3c45c586ca1003a3cbf986</title>
<image xlink:href="/home/emumford/.local/lib/python3.13/site-packages/resources/programming/language/java.png" width="101px" height="101px" preserveAspectRatio="xMinYMin meet" x="448.5" y="-542"/>
<text text-anchor="middle" x="499" y="-426.6" font-family="Sans-Serif" font-size="13.00" fill="#2d3436">MachineFactory</text>
</g>
<!-- 3ed5a7cd2f3c45c586ca1003a3cbf986&#45;&gt;68ad2b539c0d425b8aa4d0f48b6fac81 -->
<g id="edge5" class="edge">
<title>3ed5a7cd2f3c45c586ca1003a3cbf986&#45;&gt;68ad2b539c0d425b8aa4d0f48b6fac81</title>
<path fill="none" stroke="#7b8894" d="M466.5,-422.87C466.5,-372.93 466.5,-314 466.5,-314 466.5,-314 307.63,-314 307.63,-314"/>
<polygon fill="#7b8894" stroke="#7b8894" points="307.63,-310.5 297.63,-314 307.63,-317.5 307.63,-310.5"/>
</g>
<!-- 926fcc37f8cf4a45a4b582c3cc6560dd -->
<g id="node8" class="node">
<title>926fcc37f8cf4a45a4b582c3cc6560dd</title>
<image xlink:href="/home/emumford/.local/lib/python3.13/site-packages/resources/programming/language/java.png" width="101px" height="101px" preserveAspectRatio="xMinYMin meet" x="304.5" y="-542"/>
<text text-anchor="middle" x="355" y="-426.6" font-family="Sans-Serif" font-size="13.00" fill="#2d3436">CompositeFactory</text>
</g>
<!-- 926fcc37f8cf4a45a4b582c3cc6560dd&#45;&gt;68ad2b539c0d425b8aa4d0f48b6fac81 -->
<g id="edge7" class="edge">
<title>926fcc37f8cf4a45a4b582c3cc6560dd&#45;&gt;68ad2b539c0d425b8aa4d0f48b6fac81</title>
<path fill="none" stroke="#7b8894" d="M322.5,-422.86C322.5,-383.16 322.5,-341 322.5,-341 322.5,-341 307.78,-341 307.78,-341"/>
<polygon fill="#7b8894" stroke="#7b8894" points="307.78,-337.5 297.78,-341 307.78,-344.5 307.78,-337.5"/>
</g>
</g>
</svg>
