<?xml version="1.0" encoding="UTF-8" standalone="no"?>
<!DOCTYPE svg PUBLIC "-//W3C//DTD SVG 1.1//EN"
 "http://www.w3.org/Graphics/SVG/1.1/DTD/svg11.dtd">
<!-- Generated by graphviz version 2.43.0 (0)
 -->
<!-- Title: Samstraumr Container Diagram Pages: 1 -->
<svg width="879pt" height="1270pt"
 viewBox="0.00 0.00 879.00 1270.00" xmlns="http://www.w3.org/2000/svg" xmlns:xlink="http://www.w3.org/1999/xlink">
<g id="graph0" class="graph" transform="scale(1 1) rotate(0) translate(144 1126)">
<title>Samstraumr Container Diagram</title>
<polygon fill="white" stroke="transparent" points="-144,144 -144,-1126 735,-1126 735,144 -144,144"/>
<text text-anchor="middle" x="295.5" y="-9" font-family="Sans-Serif" font-size="15.00" fill="#2d3436">Samstraumr Container Diagram</text>
<g id="clust1" class="cluster">
<title>cluster_Samstraumr Framework</title>
<path fill="#e5f5fd" stroke="#aeb6be" d="M151,-216C151,-216 571,-216 571,-216 577,-216 583,-222 583,-228 583,-228 583,-962 583,-962 583,-968 577,-974 571,-974 571,-974 151,-974 151,-974 145,-974 139,-968 139,-962 139,-962 139,-228 139,-228 139,-222 145,-216 151,-216"/>
<text text-anchor="middle" x="220.5" y="-960.4" font-family="Sans-Serif" font-size="12.00" fill="#2d3436">Samstraumr Framework</text>
</g>
<g id="clust2" class="cluster">
<title>cluster_Core Framework</title>
<path fill="#ebf3e7" stroke="#aeb6be" d="M159,-590C159,-590 407,-590 407,-590 413,-590 419,-596 419,-602 419,-602 419,-933 419,-933 419,-939 413,-945 407,-945 407,-945 159,-945 159,-945 153,-945 147,-939 147,-933 147,-933 147,-602 147,-602 147,-596 153,-590 159,-590"/>
<text text-anchor="middle" x="205" y="-931.4" font-family="Sans-Serif" font-size="12.00" fill="#2d3436">Core Framework</text>
</g>
<g id="clust3" class="cluster">
<title>cluster_Orchestration</title>
<path fill="#ebf3e7" stroke="#aeb6be" d="M314,-407C314,-407 563,-407 563,-407 569,-407 575,-413 575,-419 575,-419 575,-570 575,-570 575,-576 569,-582 563,-582 563,-582 314,-582 314,-582 308,-582 302,-576 302,-570 302,-570 302,-419 302,-419 302,-413 308,-407 314,-407"/>
<text text-anchor="middle" x="351" y="-568.4" font-family="Sans-Serif" font-size="12.00" fill="#2d3436">Orchestration</text>
</g>
<g id="clust4" class="cluster">
<title>cluster_Infrastructure</title>
<path fill="#ebf3e7" stroke="#aeb6be" d="M314,-224C314,-224 563,-224 563,-224 569,-224 575,-230 575,-236 575,-236 575,-387 575,-387 575,-393 569,-399 563,-399 563,-399 314,-399 314,-399 308,-399 302,-393 302,-387 302,-387 302,-236 302,-236 302,-230 308,-224 314,-224"/>
<text text-anchor="middle" x="351.5" y="-385.4" font-family="Sans-Serif" font-size="12.00" fill="#2d3436">Infrastructure</text>
</g>
<g id="clust5" class="cluster">
<title>cluster_External Systems</title>
<path fill="#e5f5fd" stroke="#aeb6be" d="M469,-33C469,-33 564,-33 564,-33 570,-33 576,-39 576,-45 576,-45 576,-196 576,-196 576,-202 570,-208 564,-208 564,-208 469,-208 469,-208 463,-208 457,-202 457,-196 457,-196 457,-45 457,-45 457,-39 463,-33 469,-33"/>
<text text-anchor="middle" x="516.5" y="-194.4" font-family="Sans-Serif" font-size="12.00" fill="#2d3436">External Systems</text>
</g>
<!-- b02bf95ee3364aacaef70b9683d1bcb5 -->
<g id="node1" class="node">
<title>b02bf95ee3364aacaef70b9683d1bcb5</title>
<image xlink:href="/home/emumford/.local/lib/python3.13/site-packages/resources/onprem/client/user.png" width="101px" height="101px" preserveAspectRatio="xMinYMin meet" x="0" y="-807.5"/>
<text text-anchor="middle" x="50.5" y="-692.1" font-family="Sans-Serif" font-size="13.00" fill="#2d3436">Developer</text>
</g>
<!-- 2cc38bf76ae7422eb329464c776d1f08 -->
<g id="node2" class="node">
<title>2cc38bf76ae7422eb329464c776d1f08</title>
<image xlink:href="/home/emumford/.local/lib/python3.13/site-packages/resources/programming/language/java.png" width="101px" height="101px" preserveAspectRatio="xMinYMin meet" x="155" y="-717.5"/>
<text text-anchor="middle" x="205.5" y="-602.1" font-family="Sans-Serif" font-size="13.00" fill="#2d3436">Tubes</text>
</g>
<!-- b02bf95ee3364aacaef70b9683d1bcb5&#45;&gt;2cc38bf76ae7422eb329464c776d1f08 -->
<g id="edge1" class="edge">
<title>b02bf95ee3364aacaef70b9683d1bcb5&#45;&gt;2cc38bf76ae7422eb329464c776d1f08</title>
<path fill="none" stroke="#7b8894" d="M101.25,-712C101.25,-712 144.9,-712 144.9,-712"/>
<polygon fill="#7b8894" stroke="#7b8894" points="144.9,-715.5 154.9,-712 144.9,-708.5 144.9,-715.5"/>
</g>
<!-- 43674dee8fea4435acdc2cb8df4bdf87 -->
<g id="node3" class="node">
<title>43674dee8fea4435acdc2cb8df4bdf87</title>
<image xlink:href="/home/emumford/.local/lib/python3.13/site-packages/resources/programming/language/java.png" width="101px" height="101px" preserveAspectRatio="xMinYMin meet" x="155" y="-897.5"/>
<text text-anchor="middle" x="205.5" y="-782.1" font-family="Sans-Serif" font-size="13.00" fill="#2d3436">Components</text>
</g>
<!-- b02bf95ee3364aacaef70b9683d1bcb5&#45;&gt;43674dee8fea4435acdc2cb8df4bdf87 -->
<g id="edge3" class="edge">
<title>b02bf95ee3364aacaef70b9683d1bcb5&#45;&gt;43674dee8fea4435acdc2cb8df4bdf87</title>
<path fill="none" stroke="#7b8894" d="M101.25,-802C101.25,-802 144.9,-802 144.9,-802"/>
<polygon fill="#7b8894" stroke="#7b8894" points="144.9,-805.5 154.9,-802 144.9,-798.5 144.9,-805.5"/>
</g>
<!-- 1c82c432bb5a4d718935b8c433ef52c5 -->
<g id="node4" class="node">
<title>1c82c432bb5a4d718935b8c433ef52c5</title>
<image xlink:href="/home/emumford/.local/lib/python3.13/site-packages/resources/programming/language/java.png" width="101px" height="101px" preserveAspectRatio="xMinYMin meet" x="310" y="-717.5"/>
<text text-anchor="middle" x="360.5" y="-602.1" font-family="Sans-Serif" font-size="13.00" fill="#2d3436">Identity</text>
</g>
<!-- 2cc38bf76ae7422eb329464c776d1f08&#45;&gt;1c82c432bb5a4d718935b8c433ef52c5 -->
<g id="edge6" class="edge">
<title>2cc38bf76ae7422eb329464c776d1f08&#45;&gt;1c82c432bb5a4d718935b8c433ef52c5</title>
<path fill="none" stroke="#7b8894" d="M256.25,-667C256.25,-667 299.9,-667 299.9,-667"/>
<polygon fill="#7b8894" stroke="#7b8894" points="299.9,-670.5 309.9,-667 299.9,-663.5 299.9,-670.5"/>
</g>
<!-- 065c89a6965c4400bf315682636c0cde -->
<g id="node7" class="node">
<title>065c89a6965c4400bf315682636c0cde</title>
<image xlink:href="/home/emumford/.local/lib/python3.13/site-packages/resources/programming/language/java.png" width="101px" height="101px" preserveAspectRatio="xMinYMin meet" x="310" y="-351.5"/>
<text text-anchor="middle" x="360.5" y="-236.1" font-family="Sans-Serif" font-size="13.00" fill="#2d3436">Event Dispatcher</text>
</g>
<!-- 2cc38bf76ae7422eb329464c776d1f08&#45;&gt;065c89a6965c4400bf315682636c0cde -->
<g id="edge2" class="edge">
<title>2cc38bf76ae7422eb329464c776d1f08&#45;&gt;065c89a6965c4400bf315682636c0cde</title>
<path fill="none" stroke="#7b8894" d="M206,-598.16C206,-492.14 206,-301 206,-301 206,-301 299.91,-301 299.91,-301"/>
<polygon fill="#7b8894" stroke="#7b8894" points="299.91,-304.5 309.91,-301 299.91,-297.5 299.91,-304.5"/>
</g>
<!-- 43674dee8fea4435acdc2cb8df4bdf87&#45;&gt;1c82c432bb5a4d718935b8c433ef52c5 -->
<g id="edge7" class="edge">
<title>43674dee8fea4435acdc2cb8df4bdf87&#45;&gt;1c82c432bb5a4d718935b8c433ef52c5</title>
<path fill="none" stroke="#7b8894" d="M256.42,-869.83C301.77,-869.83 361,-869.83 361,-869.83 361,-869.83 361,-745.67 361,-745.67"/>
<polygon fill="#7b8894" stroke="#7b8894" points="364.5,-745.67 361,-735.67 357.5,-745.67 364.5,-745.67"/>
</g>
<!-- 7eec4266a6044944b2267d9c135aabdb -->
<g id="node5" class="node">
<title>7eec4266a6044944b2267d9c135aabdb</title>
<image xlink:href="/home/emumford/.local/lib/python3.13/site-packages/resources/programming/language/java.png" width="101px" height="101px" preserveAspectRatio="xMinYMin meet" x="310" y="-534.5"/>
<text text-anchor="middle" x="360.5" y="-419.1" font-family="Sans-Serif" font-size="13.00" fill="#2d3436">Machine</text>
</g>
<!-- 43674dee8fea4435acdc2cb8df4bdf87&#45;&gt;7eec4266a6044944b2267d9c135aabdb -->
<g id="edge4" class="edge">
<title>43674dee8fea4435acdc2cb8df4bdf87&#45;&gt;7eec4266a6044944b2267d9c135aabdb</title>
<path fill="none" stroke="#7b8894" d="M256.33,-824.17C270.94,-824.17 283,-824.17 283,-824.17 283,-824.17 283,-484 283,-484 283,-484 299.67,-484 299.67,-484"/>
<polygon fill="#7b8894" stroke="#7b8894" points="299.67,-487.5 309.67,-484 299.67,-480.5 299.67,-487.5"/>
</g>
<!-- 98804e39fb454bcb9b72c7930e505615 -->
<g id="node6" class="node">
<title>98804e39fb454bcb9b72c7930e505615</title>
<image xlink:href="/home/emumford/.local/lib/python3.13/site-packages/resources/programming/language/java.png" width="101px" height="101px" preserveAspectRatio="xMinYMin meet" x="466" y="-534.5"/>
<text text-anchor="middle" x="516.5" y="-419.1" font-family="Sans-Serif" font-size="13.00" fill="#2d3436">Composite</text>
</g>
<!-- 7eec4266a6044944b2267d9c135aabdb&#45;&gt;98804e39fb454bcb9b72c7930e505615 -->
<g id="edge5" class="edge">
<title>7eec4266a6044944b2267d9c135aabdb&#45;&gt;98804e39fb454bcb9b72c7930e505615</title>
<path fill="none" stroke="#7b8894" d="M411.15,-506.83C411.15,-506.83 455.84,-506.83 455.84,-506.83"/>
<polygon fill="#7b8894" stroke="#7b8894" points="455.84,-510.33 465.84,-506.83 455.84,-503.33 455.84,-510.33"/>
</g>
<!-- 923631904bfd466bb3efe00ea93c1fb3 -->
<g id="node9" class="node">
<title>923631904bfd466bb3efe00ea93c1fb3</title>
<image xlink:href="/home/emumford/.local/lib/python3.13/site-packages/resources/onprem/compute/server.png" width="101px" height="101px" preserveAspectRatio="xMinYMin meet" x="466" y="-160.5"/>
<text text-anchor="middle" x="516.5" y="-45.1" font-family="Sans-Serif" font-size="13.00" fill="#2d3436">CI/CD Pipeline</text>
</g>
<!-- 7eec4266a6044944b2267d9c135aabdb&#45;&gt;923631904bfd466bb3efe00ea93c1fb3 -->
<g id="edge10" class="edge">
<title>7eec4266a6044944b2267d9c135aabdb&#45;&gt;923631904bfd466bb3efe00ea93c1fb3</title>
<path fill="none" stroke="#7b8894" d="M411.1,-461.17C426.29,-461.17 439,-461.17 439,-461.17 439,-461.17 439,-110 439,-110 439,-110 455.67,-110 455.67,-110"/>
<polygon fill="#7b8894" stroke="#7b8894" points="455.67,-113.5 465.67,-110 455.67,-106.5 455.67,-113.5"/>
</g>
<!-- 98804e39fb454bcb9b72c7930e505615&#45;&gt;1c82c432bb5a4d718935b8c433ef52c5 -->
<g id="edge8" class="edge">
<title>98804e39fb454bcb9b72c7930e505615&#45;&gt;1c82c432bb5a4d718935b8c433ef52c5</title>
<path fill="none" stroke="#7b8894" d="M517,-552.66C517,-604.59 517,-667 517,-667 517,-667 421.31,-667 421.31,-667"/>
<polygon fill="#7b8894" stroke="#7b8894" points="421.31,-663.5 411.31,-667 421.31,-670.5 421.31,-663.5"/>
</g>
<!-- c368a53d103e4c8399c318d1081384a1 -->
<g id="node8" class="node">
<title>c368a53d103e4c8399c318d1081384a1</title>
<image xlink:href="/home/emumford/.local/lib/python3.13/site-packages/resources/onprem/database/postgresql.png" width="101px" height="101px" preserveAspectRatio="xMinYMin meet" x="466" y="-351.5"/>
<text text-anchor="middle" x="516.5" y="-236.1" font-family="Sans-Serif" font-size="13.00" fill="#2d3436">Event Store</text>
</g>
<!-- 065c89a6965c4400bf315682636c0cde&#45;&gt;c368a53d103e4c8399c318d1081384a1 -->
<g id="edge9" class="edge">
<title>065c89a6965c4400bf315682636c0cde&#45;&gt;c368a53d103e4c8399c318d1081384a1</title>
<path fill="none" stroke="#7b8894" d="M411.15,-301C411.15,-301 455.84,-301 455.84,-301"/>
<polygon fill="#7b8894" stroke="#7b8894" points="455.84,-304.5 465.84,-301 455.84,-297.5 455.84,-304.5"/>
</g>
</g>
</svg>
