<?xml version="1.0" encoding="UTF-8" standalone="no"?>
<!DOCTYPE svg PUBLIC "-//W3C//DTD SVG 1.1//EN"
 "http://www.w3.org/Graphics/SVG/1.1/DTD/svg11.dtd">
<!-- Generated by graphviz version 2.43.0 (0)
 -->
<!-- Title: Samstraumr Port Integration Patterns Pages: 1 -->
<svg width="1253pt" height="657pt"
 viewBox="0.00 0.00 1253.00 657.00" xmlns="http://www.w3.org/2000/svg" xmlns:xlink="http://www.w3.org/1999/xlink">
<g id="graph0" class="graph" transform="scale(1 1) rotate(0) translate(144 513)">
<title>Samstraumr Port Integration Patterns</title>
<polygon fill="white" stroke="transparent" points="-144,144 -144,-513 1109,-513 1109,144 -144,144"/>
<text text-anchor="middle" x="482.5" y="-9" font-family="Sans-Serif" font-size="15.00" fill="#2d3436">Samstraumr Port Integration Patterns</text>
<g id="clust1" class="cluster">
<title>cluster_Integration Services</title>
<path fill="#e5f5fd" stroke="#aeb6be" d="M147.5,-33C147.5,-33 673.5,-33 673.5,-33 679.5,-33 685.5,-39 685.5,-45 685.5,-45 685.5,-195 685.5,-195 685.5,-201 679.5,-207 673.5,-207 673.5,-207 147.5,-207 147.5,-207 141.5,-207 135.5,-201 135.5,-195 135.5,-195 135.5,-45 135.5,-45 135.5,-39 141.5,-33 147.5,-33"/>
<text text-anchor="middle" x="204" y="-193.4" font-family="Sans-Serif" font-size="12.00" fill="#2d3436">Integration Services</text>
</g>
<!-- 1651b4f820fa4a1286c7a3af6b8be3ea -->
<g id="node1" class="node">
<title>1651b4f820fa4a1286c7a3af6b8be3ea</title>
<image xlink:href="/home/emumford/.local/lib/python3.13/site-packages/resources/programming/language/java.png" width="101px" height="101px" preserveAspectRatio="xMinYMin meet" x="432" y="-351"/>
<text text-anchor="middle" x="482.5" y="-235.6" font-family="Sans-Serif" font-size="13.00" fill="#2d3436">NotificationPort</text>
</g>
<!-- 5ce44b47cf1d438bb53de77516a97a8a -->
<g id="node9" class="node">
<title>5ce44b47cf1d438bb53de77516a97a8a</title>
<image xlink:href="/home/emumford/.local/lib/python3.13/site-packages/resources/programming/language/java.png" width="101px" height="101px" preserveAspectRatio="xMinYMin meet" x="432" y="-160"/>
<text text-anchor="middle" x="482.5" y="-44.6" font-family="Sans-Serif" font-size="13.00" fill="#2d3436">EventNotificationService</text>
</g>
<!-- 1651b4f820fa4a1286c7a3af6b8be3ea&#45;&gt;5ce44b47cf1d438bb53de77516a97a8a -->
<g id="edge4" class="edge">
<title>1651b4f820fa4a1286c7a3af6b8be3ea&#45;&gt;5ce44b47cf1d438bb53de77516a97a8a</title>
<path fill="none" stroke="#7b8894" d="M465.67,-221.81C465.67,-221.81 465.67,-178.22 465.67,-178.22"/>
<polygon fill="#7b8894" stroke="#7b8894" points="462.17,-221.81 465.67,-231.81 469.17,-221.81 462.17,-221.81"/>
</g>
<!-- 2a48f1ac015b43f5b1d062c926ea4275 -->
<g id="node2" class="node">
<title>2a48f1ac015b43f5b1d062c926ea4275</title>
<image xlink:href="/home/emumford/.local/lib/python3.13/site-packages/resources/programming/language/java.png" width="101px" height="101px" preserveAspectRatio="xMinYMin meet" x="0" y="-351"/>
<text text-anchor="middle" x="50.5" y="-235.6" font-family="Sans-Serif" font-size="13.00" fill="#2d3436">CachePort</text>
</g>
<!-- cf213a2b2f2042a5b2c4fc797b4255ff -->
<g id="node8" class="node">
<title>cf213a2b2f2042a5b2c4fc797b4255ff</title>
<image xlink:href="/home/emumford/.local/lib/python3.13/site-packages/resources/programming/language/java.png" width="101px" height="101px" preserveAspectRatio="xMinYMin meet" x="144" y="-160"/>
<text text-anchor="middle" x="194.5" y="-44.6" font-family="Sans-Serif" font-size="13.00" fill="#2d3436">CachingFileService</text>
</g>
<!-- 2a48f1ac015b43f5b1d062c926ea4275&#45;&gt;cf213a2b2f2042a5b2c4fc797b4255ff -->
<g id="edge1" class="edge">
<title>2a48f1ac015b43f5b1d062c926ea4275&#45;&gt;cf213a2b2f2042a5b2c4fc797b4255ff</title>
<path fill="none" stroke="#7b8894" d="M50.5,-231.91C50.5,-176.96 50.5,-109 50.5,-109 50.5,-109 133.73,-109 133.73,-109"/>
<polygon fill="#7b8894" stroke="#7b8894" points="133.73,-112.5 143.73,-109 133.73,-105.5 133.73,-112.5"/>
</g>
<!-- 9a0a81ef0605415a91a3642405aeade9 -->
<g id="node3" class="node">
<title>9a0a81ef0605415a91a3642405aeade9</title>
<image xlink:href="/home/emumford/.local/lib/python3.13/site-packages/resources/programming/language/java.png" width="101px" height="101px" preserveAspectRatio="xMinYMin meet" x="144" y="-351"/>
<text text-anchor="middle" x="194.5" y="-235.6" font-family="Sans-Serif" font-size="13.00" fill="#2d3436">FileSystemPort</text>
</g>
<!-- 9a0a81ef0605415a91a3642405aeade9&#45;&gt;cf213a2b2f2042a5b2c4fc797b4255ff -->
<g id="edge2" class="edge">
<title>9a0a81ef0605415a91a3642405aeade9&#45;&gt;cf213a2b2f2042a5b2c4fc797b4255ff</title>
<path fill="none" stroke="#7b8894" d="M177.67,-231.81C177.67,-231.81 177.67,-188.22 177.67,-188.22"/>
<polygon fill="#7b8894" stroke="#7b8894" points="181.17,-188.22 177.67,-178.22 174.17,-188.22 181.17,-188.22"/>
</g>
<!-- 621ecc362abb40788d9e30dca6807d66 -->
<g id="node11" class="node">
<title>621ecc362abb40788d9e30dca6807d66</title>
<image xlink:href="/home/emumford/.local/lib/python3.13/site-packages/resources/programming/language/java.png" width="101px" height="101px" preserveAspectRatio="xMinYMin meet" x="288" y="-160"/>
<text text-anchor="middle" x="338.5" y="-44.6" font-family="Sans-Serif" font-size="13.00" fill="#2d3436">SecureFileService</text>
</g>
<!-- 9a0a81ef0605415a91a3642405aeade9&#45;&gt;621ecc362abb40788d9e30dca6807d66 -->
<g id="edge8" class="edge">
<title>9a0a81ef0605415a91a3642405aeade9&#45;&gt;621ecc362abb40788d9e30dca6807d66</title>
<path fill="none" stroke="#7b8894" d="M211.33,-221.96C211.33,-221.96 211.33,-196 211.33,-196 211.33,-196 321.67,-196 321.67,-196 321.67,-196 321.67,-188.58 321.67,-178.08"/>
<polygon fill="#7b8894" stroke="#7b8894" points="207.83,-221.96 211.33,-231.96 214.83,-221.96 207.83,-221.96"/>
</g>
<!-- 6c536b8c89164f9ab24917ca0e61476a -->
<g id="node4" class="node">
<title>6c536b8c89164f9ab24917ca0e61476a</title>
<image xlink:href="/home/emumford/.local/lib/python3.13/site-packages/resources/programming/language/java.png" width="101px" height="101px" preserveAspectRatio="xMinYMin meet" x="864" y="-351"/>
<text text-anchor="middle" x="914.5" y="-235.6" font-family="Sans-Serif" font-size="13.00" fill="#2d3436">ValidationPort</text>
</g>
<!-- 10aa2330b31a417b848ab088cc3f6e18 -->
<g id="node10" class="node">
<title>10aa2330b31a417b848ab088cc3f6e18</title>
<image xlink:href="/home/emumford/.local/lib/python3.13/site-packages/resources/programming/language/java.png" width="101px" height="101px" preserveAspectRatio="xMinYMin meet" x="576" y="-160"/>
<text text-anchor="middle" x="626.5" y="-44.6" font-family="Sans-Serif" font-size="13.00" fill="#2d3436">ValidationPersistenceService</text>
</g>
<!-- 6c536b8c89164f9ab24917ca0e61476a&#45;&gt;10aa2330b31a417b848ab088cc3f6e18 -->
<g id="edge5" class="edge">
<title>6c536b8c89164f9ab24917ca0e61476a&#45;&gt;10aa2330b31a417b848ab088cc3f6e18</title>
<path fill="none" stroke="#7b8894" d="M914.5,-231.75C914.5,-169.01 914.5,-86 914.5,-86 914.5,-86 687.33,-86 687.33,-86"/>
<polygon fill="#7b8894" stroke="#7b8894" points="687.33,-82.5 677.33,-86 687.33,-89.5 687.33,-82.5"/>
</g>
<!-- 633e01fa952842f0a149d0b6ebd519b7 -->
<g id="node5" class="node">
<title>633e01fa952842f0a149d0b6ebd519b7</title>
<image xlink:href="/home/emumford/.local/lib/python3.13/site-packages/resources/programming/language/java.png" width="101px" height="101px" preserveAspectRatio="xMinYMin meet" x="720" y="-351"/>
<text text-anchor="middle" x="770.5" y="-235.6" font-family="Sans-Serif" font-size="13.00" fill="#2d3436">PersistencePort</text>
</g>
<!-- 633e01fa952842f0a149d0b6ebd519b7&#45;&gt;10aa2330b31a417b848ab088cc3f6e18 -->
<g id="edge6" class="edge">
<title>633e01fa952842f0a149d0b6ebd519b7&#45;&gt;10aa2330b31a417b848ab088cc3f6e18</title>
<path fill="none" stroke="#7b8894" d="M770.5,-221.96C770.5,-221.96 770.5,-132 770.5,-132 770.5,-132 718.73,-132 677.27,-132"/>
<polygon fill="#7b8894" stroke="#7b8894" points="767,-221.96 770.5,-231.96 774,-221.96 767,-221.96"/>
</g>
<!-- 98f8be4c7ca547c6838ebd84f1cc4b03 -->
<g id="node6" class="node">
<title>98f8be4c7ca547c6838ebd84f1cc4b03</title>
<image xlink:href="/home/emumford/.local/lib/python3.13/site-packages/resources/programming/language/java.png" width="101px" height="101px" preserveAspectRatio="xMinYMin meet" x="576" y="-351"/>
<text text-anchor="middle" x="626.5" y="-235.6" font-family="Sans-Serif" font-size="13.00" fill="#2d3436">EventPublisherPort</text>
</g>
<!-- 98f8be4c7ca547c6838ebd84f1cc4b03&#45;&gt;5ce44b47cf1d438bb53de77516a97a8a -->
<g id="edge3" class="edge">
<title>98f8be4c7ca547c6838ebd84f1cc4b03&#45;&gt;5ce44b47cf1d438bb53de77516a97a8a</title>
<path fill="none" stroke="#7b8894" d="M626.5,-231.92C626.5,-221.42 626.5,-214 626.5,-214 626.5,-214 499.33,-214 499.33,-214 499.33,-214 499.33,-188.04 499.33,-188.04"/>
<polygon fill="#7b8894" stroke="#7b8894" points="502.83,-188.04 499.33,-178.04 495.83,-188.04 502.83,-188.04"/>
</g>
<!-- 9173146ff10e4754bda72573ea9b488c -->
<g id="node7" class="node">
<title>9173146ff10e4754bda72573ea9b488c</title>
<image xlink:href="/home/emumford/.local/lib/python3.13/site-packages/resources/programming/language/java.png" width="101px" height="101px" preserveAspectRatio="xMinYMin meet" x="288" y="-351"/>
<text text-anchor="middle" x="338.5" y="-235.6" font-family="Sans-Serif" font-size="13.00" fill="#2d3436">SecurityPort</text>
</g>
<!-- 9173146ff10e4754bda72573ea9b488c&#45;&gt;621ecc362abb40788d9e30dca6807d66 -->
<g id="edge7" class="edge">
<title>9173146ff10e4754bda72573ea9b488c&#45;&gt;621ecc362abb40788d9e30dca6807d66</title>
<path fill="none" stroke="#7b8894" d="M355.33,-231.81C355.33,-231.81 355.33,-188.22 355.33,-188.22"/>
<polygon fill="#7b8894" stroke="#7b8894" points="358.83,-188.22 355.33,-178.22 351.83,-188.22 358.83,-188.22"/>
</g>
</g>
</svg>
