<?xml version="1.0" encoding="UTF-8" standalone="no"?>
<!DOCTYPE svg PUBLIC "-//W3C//DTD SVG 1.1//EN"
 "http://www.w3.org/Graphics/SVG/1.1/DTD/svg11.dtd">
<!-- Generated by graphviz version 2.43.0 (0)
 -->
<!-- Title: Samstraumr Component Diagram Pages: 1 -->
<svg width="731pt" height="1227pt"
 viewBox="0.00 0.00 731.00 1227.00" xmlns="http://www.w3.org/2000/svg" xmlns:xlink="http://www.w3.org/1999/xlink">
<g id="graph0" class="graph" transform="scale(1 1) rotate(0) translate(144 1083)">
<title>Samstraumr Component Diagram</title>
<polygon fill="white" stroke="transparent" points="-144,144 -144,-1083 587,-1083 587,144 -144,144"/>
<text text-anchor="middle" x="221.5" y="-9" font-family="Sans-Serif" font-size="15.00" fill="#2d3436">Samstraumr Component Diagram</text>
<g id="clust1" class="cluster">
<title>cluster_Core Domain</title>
<path fill="#e5f5fd" stroke="#aeb6be" d="M175,-396C175,-396 423,-396 423,-396 429,-396 435,-402 435,-408 435,-408 435,-919 435,-919 435,-925 429,-931 423,-931 423,-931 175,-931 175,-931 169,-931 163,-925 163,-919 163,-919 163,-408 163,-408 163,-402 169,-396 175,-396"/>
<text text-anchor="middle" x="210.5" y="-917.4" font-family="Sans-Serif" font-size="12.00" fill="#2d3436">Core Domain</text>
</g>
<g id="clust2" class="cluster">
<title>cluster_Orchestration</title>
<path fill="#e5f5fd" stroke="#aeb6be" d="M20,-396C20,-396 113,-396 113,-396 119,-396 125,-402 125,-408 125,-408 125,-919 125,-919 125,-925 119,-931 113,-931 113,-931 20,-931 20,-931 14,-931 8,-925 8,-919 8,-919 8,-408 8,-408 8,-402 14,-396 20,-396"/>
<text text-anchor="middle" x="57" y="-917.4" font-family="Sans-Serif" font-size="12.00" fill="#2d3436">Orchestration</text>
</g>
<g id="clust3" class="cluster">
<title>cluster_Infrastructure</title>
<path fill="#e5f5fd" stroke="#aeb6be" d="M20,-33C20,-33 268,-33 268,-33 274,-33 280,-39 280,-45 280,-45 280,-376 280,-376 280,-382 274,-388 268,-388 268,-388 20,-388 20,-388 14,-388 8,-382 8,-376 8,-376 8,-45 8,-45 8,-39 14,-33 20,-33"/>
<text text-anchor="middle" x="57.5" y="-374.4" font-family="Sans-Serif" font-size="12.00" fill="#2d3436">Infrastructure</text>
</g>
<!-- 5fbb0d2e5751417292d53adc4ed657b8 -->
<g id="node1" class="node">
<title>5fbb0d2e5751417292d53adc4ed657b8</title>
<image xlink:href="/home/emumford/.local/lib/python3.13/site-packages/resources/programming/language/java.png" width="101px" height="101px" preserveAspectRatio="xMinYMin meet" x="171" y="-883.5"/>
<text text-anchor="middle" x="221.5" y="-768.1" font-family="Sans-Serif" font-size="13.00" fill="#2d3436">Tube</text>
</g>
<!-- c60774d353f145f4be849091fe7c7efb -->
<g id="node3" class="node">
<title>c60774d353f145f4be849091fe7c7efb</title>
<image xlink:href="/home/emumford/.local/lib/python3.13/site-packages/resources/programming/language/java.png" width="101px" height="101px" preserveAspectRatio="xMinYMin meet" x="326" y="-793.5"/>
<text text-anchor="middle" x="376.5" y="-678.1" font-family="Sans-Serif" font-size="13.00" fill="#2d3436">Identity</text>
</g>
<!-- 5fbb0d2e5751417292d53adc4ed657b8&#45;&gt;c60774d353f145f4be849091fe7c7efb -->
<g id="edge1" class="edge">
<title>5fbb0d2e5751417292d53adc4ed657b8&#45;&gt;c60774d353f145f4be849091fe7c7efb</title>
<path fill="none" stroke="#7b8894" d="M272.25,-788C272.25,-788 315.9,-788 315.9,-788"/>
<polygon fill="#7b8894" stroke="#7b8894" points="315.9,-791.5 325.9,-788 315.9,-784.5 315.9,-791.5"/>
</g>
<!-- 1cb48b80ea1d46f1a7e0417212d0756c -->
<g id="node2" class="node">
<title>1cb48b80ea1d46f1a7e0417212d0756c</title>
<image xlink:href="/home/emumford/.local/lib/python3.13/site-packages/resources/programming/language/java.png" width="101px" height="101px" preserveAspectRatio="xMinYMin meet" x="171" y="-703.5"/>
<text text-anchor="middle" x="221.5" y="-588.1" font-family="Sans-Serif" font-size="13.00" fill="#2d3436">Component</text>
</g>
<!-- 1cb48b80ea1d46f1a7e0417212d0756c&#45;&gt;c60774d353f145f4be849091fe7c7efb -->
<g id="edge2" class="edge">
<title>1cb48b80ea1d46f1a7e0417212d0756c&#45;&gt;c60774d353f145f4be849091fe7c7efb</title>
<path fill="none" stroke="#7b8894" d="M272.25,-698C272.25,-698 315.9,-698 315.9,-698"/>
<polygon fill="#7b8894" stroke="#7b8894" points="315.9,-701.5 325.9,-698 315.9,-694.5 315.9,-701.5"/>
</g>
<!-- f47494841df643de8ca0508156171cc6 -->
<g id="node4" class="node">
<title>f47494841df643de8ca0508156171cc6</title>
<image xlink:href="/home/emumford/.local/lib/python3.13/site-packages/resources/programming/language/java.png" width="101px" height="101px" preserveAspectRatio="xMinYMin meet" x="171" y="-523.5"/>
<text text-anchor="middle" x="221.5" y="-408.1" font-family="Sans-Serif" font-size="13.00" fill="#2d3436">Lifecycle</text>
</g>
<!-- 08db723f8c1d4aa5a5b7e3615c7049a1 -->
<g id="node5" class="node">
<title>08db723f8c1d4aa5a5b7e3615c7049a1</title>
<image xlink:href="/home/emumford/.local/lib/python3.13/site-packages/resources/programming/language/java.png" width="101px" height="101px" preserveAspectRatio="xMinYMin meet" x="16" y="-703.5"/>
<text text-anchor="middle" x="66.5" y="-588.1" font-family="Sans-Serif" font-size="13.00" fill="#2d3436">Machine</text>
</g>
<!-- 08db723f8c1d4aa5a5b7e3615c7049a1&#45;&gt;1cb48b80ea1d46f1a7e0417212d0756c -->
<g id="edge4" class="edge">
<title>08db723f8c1d4aa5a5b7e3615c7049a1&#45;&gt;1cb48b80ea1d46f1a7e0417212d0756c</title>
<path fill="none" stroke="#7b8894" d="M117.25,-675.83C117.25,-675.83 160.9,-675.83 160.9,-675.83"/>
<polygon fill="#7b8894" stroke="#7b8894" points="160.9,-679.33 170.9,-675.83 160.9,-672.33 160.9,-679.33"/>
</g>
<!-- 5a5ca2a0531e42058ae0ebf7e2cb0a66 -->
<g id="node8" class="node">
<title>5a5ca2a0531e42058ae0ebf7e2cb0a66</title>
<image xlink:href="/home/emumford/.local/lib/python3.13/site-packages/resources/programming/language/java.png" width="101px" height="101px" preserveAspectRatio="xMinYMin meet" x="171" y="-340.5"/>
<text text-anchor="middle" x="221.5" y="-225.1" font-family="Sans-Serif" font-size="13.00" fill="#2d3436">Repository</text>
</g>
<!-- 08db723f8c1d4aa5a5b7e3615c7049a1&#45;&gt;5a5ca2a0531e42058ae0ebf7e2cb0a66 -->
<g id="edge7" class="edge">
<title>08db723f8c1d4aa5a5b7e3615c7049a1&#45;&gt;5a5ca2a0531e42058ae0ebf7e2cb0a66</title>
<path fill="none" stroke="#7b8894" d="M117.33,-630.17C131.94,-630.17 144,-630.17 144,-630.17 144,-630.17 144,-328.5 144,-328.5 144,-328.5 160.67,-328.5 160.67,-328.5"/>
<polygon fill="#7b8894" stroke="#7b8894" points="160.67,-332 170.67,-328.5 160.67,-325 160.67,-332"/>
</g>
<!-- c56c7c09708d488880f7dcd2c50ca696 -->
<g id="node6" class="node">
<title>c56c7c09708d488880f7dcd2c50ca696</title>
<image xlink:href="/home/emumford/.local/lib/python3.13/site-packages/resources/programming/language/java.png" width="101px" height="101px" preserveAspectRatio="xMinYMin meet" x="16" y="-523.5"/>
<text text-anchor="middle" x="66.5" y="-408.1" font-family="Sans-Serif" font-size="13.00" fill="#2d3436">Composite</text>
</g>
<!-- c56c7c09708d488880f7dcd2c50ca696&#45;&gt;1cb48b80ea1d46f1a7e0417212d0756c -->
<g id="edge3" class="edge">
<title>c56c7c09708d488880f7dcd2c50ca696&#45;&gt;1cb48b80ea1d46f1a7e0417212d0756c</title>
<path fill="none" stroke="#7b8894" d="M67,-541.67C67,-553.99 67,-563 67,-563 67,-563 222,-563 222,-563 222,-563 222,-574.33 222,-574.33"/>
<polygon fill="#7b8894" stroke="#7b8894" points="218.5,-574.33 222,-584.33 225.5,-574.33 218.5,-574.33"/>
</g>
<!-- c56c7c09708d488880f7dcd2c50ca696&#45;&gt;5a5ca2a0531e42058ae0ebf7e2cb0a66 -->
<g id="edge6" class="edge">
<title>c56c7c09708d488880f7dcd2c50ca696&#45;&gt;5a5ca2a0531e42058ae0ebf7e2cb0a66</title>
<path fill="none" stroke="#7b8894" d="M67,-404.28C67,-355.45 67,-298.5 67,-298.5 67,-298.5 160.91,-298.5 160.91,-298.5"/>
<polygon fill="#7b8894" stroke="#7b8894" points="160.91,-302 170.91,-298.5 160.91,-295 160.91,-302"/>
</g>
<!-- 236c7c2e3cbc40c2acaa6a95b88b5c49 -->
<g id="node7" class="node">
<title>236c7c2e3cbc40c2acaa6a95b88b5c49</title>
<image xlink:href="/home/emumford/.local/lib/python3.13/site-packages/resources/programming/language/java.png" width="101px" height="101px" preserveAspectRatio="xMinYMin meet" x="16" y="-883.5"/>
<text text-anchor="middle" x="66.5" y="-768.1" font-family="Sans-Serif" font-size="13.00" fill="#2d3436">DataFlow</text>
</g>
<!-- 236c7c2e3cbc40c2acaa6a95b88b5c49&#45;&gt;1cb48b80ea1d46f1a7e0417212d0756c -->
<g id="edge5" class="edge">
<title>236c7c2e3cbc40c2acaa6a95b88b5c49&#45;&gt;1cb48b80ea1d46f1a7e0417212d0756c</title>
<path fill="none" stroke="#7b8894" d="M67,-764.33C67,-752.01 67,-743 67,-743 67,-743 222,-743 222,-743 222,-743 222,-731.67 222,-731.67"/>
<polygon fill="#7b8894" stroke="#7b8894" points="225.5,-731.67 222,-721.67 218.5,-731.67 225.5,-731.67"/>
</g>
<!-- 9a495648240342e6ad501347c9f250d9 -->
<g id="node9" class="node">
<title>9a495648240342e6ad501347c9f250d9</title>
<image xlink:href="/home/emumford/.local/lib/python3.13/site-packages/resources/programming/language/java.png" width="101px" height="101px" preserveAspectRatio="xMinYMin meet" x="16" y="-250.5"/>
<text text-anchor="middle" x="66.5" y="-135.1" font-family="Sans-Serif" font-size="13.00" fill="#2d3436">EventDispatcher</text>
</g>
<!-- 9a495648240342e6ad501347c9f250d9&#45;&gt;5a5ca2a0531e42058ae0ebf7e2cb0a66 -->
<g id="edge9" class="edge">
<title>9a495648240342e6ad501347c9f250d9&#45;&gt;5a5ca2a0531e42058ae0ebf7e2cb0a66</title>
<path fill="none" stroke="#7b8894" d="M117.25,-245C117.25,-245 160.9,-245 160.9,-245"/>
<polygon fill="#7b8894" stroke="#7b8894" points="160.9,-248.5 170.9,-245 160.9,-241.5 160.9,-248.5"/>
</g>
<!-- 5df7bc2ea44c4d7eb8b894e4994f565b -->
<g id="node10" class="node">
<title>5df7bc2ea44c4d7eb8b894e4994f565b</title>
<image xlink:href="/home/emumford/.local/lib/python3.13/site-packages/resources/programming/language/java.png" width="101px" height="101px" preserveAspectRatio="xMinYMin meet" x="171" y="-160.5"/>
<text text-anchor="middle" x="221.5" y="-45.1" font-family="Sans-Serif" font-size="13.00" fill="#2d3436">Logger</text>
</g>
<!-- 9a495648240342e6ad501347c9f250d9&#45;&gt;5df7bc2ea44c4d7eb8b894e4994f565b -->
<g id="edge8" class="edge">
<title>9a495648240342e6ad501347c9f250d9&#45;&gt;5df7bc2ea44c4d7eb8b894e4994f565b</title>
<path fill="none" stroke="#7b8894" d="M117.25,-155C117.25,-155 160.9,-155 160.9,-155"/>
<polygon fill="#7b8894" stroke="#7b8894" points="160.9,-158.5 170.9,-155 160.9,-151.5 160.9,-158.5"/>
</g>
</g>
</svg>
