<?xml version="1.0" encoding="UTF-8" standalone="no"?>
<!DOCTYPE svg PUBLIC "-//W3C//DTD SVG 1.1//EN"
 "http://www.w3.org/Graphics/SVG/1.1/DTD/svg11.dtd">
<!-- Generated by graphviz version 2.43.0 (0)
 -->
<!-- Title: Samstraumr Port Interfaces Component Diagram Pages: 1 -->
<svg width="2734pt" height="1169pt"
 viewBox="0.00 0.00 2734.00 1169.00" xmlns="http://www.w3.org/2000/svg" xmlns:xlink="http://www.w3.org/1999/xlink">
<g id="graph0" class="graph" transform="scale(1 1) rotate(0) translate(144 1025)">
<title>Samstraumr Port Interfaces Component Diagram</title>
<polygon fill="white" stroke="transparent" points="-144,144 -144,-1025 2590,-1025 2590,144 -144,144"/>
<text text-anchor="middle" x="1223" y="-9" font-family="Sans-Serif" font-size="15.00" fill="#2d3436">Samstraumr Port Interfaces Component Diagram</text>
<g id="clust1" class="cluster">
<title>cluster_Domain Layer</title>
<path fill="#e5f5fd" stroke="#aeb6be" d="M20,-41C20,-41 402,-41 402,-41 408,-41 414,-47 414,-53 414,-53 414,-641 414,-641 414,-647 408,-653 402,-653 402,-653 20,-653 20,-653 14,-653 8,-647 8,-641 8,-641 8,-53 8,-53 8,-47 14,-41 20,-41"/>
<text text-anchor="middle" x="58.5" y="-639.4" font-family="Sans-Serif" font-size="12.00" fill="#2d3436">Domain Layer</text>
</g>
<g id="clust2" class="cluster">
<title>cluster_Application Layer</title>
<path fill="#e5f5fd" stroke="#aeb6be" d="M444,-471C444,-471 2426,-471 2426,-471 2432,-471 2438,-477 2438,-483 2438,-483 2438,-861 2438,-861 2438,-867 2432,-873 2426,-873 2426,-873 444,-873 444,-873 438,-873 432,-867 432,-861 432,-861 432,-483 432,-483 432,-477 438,-471 444,-471"/>
<text text-anchor="middle" x="492" y="-859.4" font-family="Sans-Serif" font-size="12.00" fill="#2d3436">Application Layer</text>
</g>
<g id="clust3" class="cluster">
<title>cluster_Services</title>
<path fill="#ebf3e7" stroke="#aeb6be" d="M812,-670C812,-670 2346,-670 2346,-670 2352,-670 2358,-676 2358,-682 2358,-682 2358,-832 2358,-832 2358,-838 2352,-844 2346,-844 2346,-844 812,-844 812,-844 806,-844 800,-838 800,-832 800,-832 800,-682 800,-682 800,-676 806,-670 812,-670"/>
<text text-anchor="middle" x="833.5" y="-830.4" font-family="Sans-Serif" font-size="12.00" fill="#2d3436">Services</text>
</g>
<g id="clust4" class="cluster">
<title>cluster_Port Interfaces</title>
<path fill="#ebf3e7" stroke="#aeb6be" d="M452,-479C452,-479 2418,-479 2418,-479 2424,-479 2430,-485 2430,-491 2430,-491 2430,-641 2430,-641 2430,-647 2424,-653 2418,-653 2418,-653 452,-653 452,-653 446,-653 440,-647 440,-641 440,-641 440,-491 440,-491 440,-485 446,-479 452,-479"/>
<text text-anchor="middle" x="492.5" y="-639.4" font-family="Sans-Serif" font-size="12.00" fill="#2d3436">Port Interfaces</text>
</g>
<g id="clust5" class="cluster">
<title>cluster_Infrastructure Layer</title>
<path fill="#e5f5fd" stroke="#aeb6be" d="M444,-252C444,-252 2426,-252 2426,-252 2432,-252 2438,-258 2438,-264 2438,-264 2438,-451 2438,-451 2438,-457 2432,-463 2426,-463 2426,-463 444,-463 444,-463 438,-463 432,-457 432,-451 432,-451 432,-264 432,-264 432,-258 438,-252 444,-252"/>
<text text-anchor="middle" x="500.5" y="-449.4" font-family="Sans-Serif" font-size="12.00" fill="#2d3436">Infrastructure Layer</text>
</g>
<g id="clust6" class="cluster">
<title>cluster_Adapters</title>
<path fill="#ebf3e7" stroke="#aeb6be" d="M452,-260C452,-260 2418,-260 2418,-260 2424,-260 2430,-266 2430,-272 2430,-272 2430,-422 2430,-422 2430,-428 2424,-434 2418,-434 2418,-434 452,-434 452,-434 446,-434 440,-428 440,-422 440,-422 440,-272 440,-272 440,-266 446,-260 452,-260"/>
<text text-anchor="middle" x="475.5" y="-420.4" font-family="Sans-Serif" font-size="12.00" fill="#2d3436">Adapters</text>
</g>
<g id="clust7" class="cluster">
<title>cluster_External Systems</title>
<path fill="#e5f5fd" stroke="#aeb6be" d="M1380,-33C1380,-33 2210,-33 2210,-33 2216,-33 2222,-39 2222,-45 2222,-45 2222,-232 2222,-232 2222,-238 2216,-244 2210,-244 2210,-244 1380,-244 1380,-244 1374,-244 1368,-238 1368,-232 1368,-232 1368,-45 1368,-45 1368,-39 1374,-33 1380,-33"/>
<text text-anchor="middle" x="1427.5" y="-230.4" font-family="Sans-Serif" font-size="12.00" fill="#2d3436">External Systems</text>
</g>
<g id="clust8" class="cluster">
<title>cluster_External Resources</title>
<path fill="#ebf3e7" stroke="#aeb6be" d="M1388,-41C1388,-41 2202,-41 2202,-41 2208,-41 2214,-47 2214,-53 2214,-53 2214,-203 2214,-203 2214,-209 2208,-215 2202,-215 2202,-215 1388,-215 1388,-215 1382,-215 1376,-209 1376,-203 1376,-203 1376,-53 1376,-53 1376,-47 1382,-41 1388,-41"/>
<text text-anchor="middle" x="1441" y="-201.4" font-family="Sans-Serif" font-size="12.00" fill="#2d3436">External Resources</text>
</g>
<!-- 5d26cf1528424e1e81af274869412004 -->
<g id="node1" class="node">
<title>5d26cf1528424e1e81af274869412004</title>
<image xlink:href="/home/emumford/.local/lib/python3.13/site-packages/resources/programming/language/java.png" width="101px" height="101px" preserveAspectRatio="xMinYMin meet" x="160.5" y="-387"/>
<text text-anchor="middle" x="211" y="-271.6" font-family="Sans-Serif" font-size="13.00" fill="#2d3436">Component</text>
</g>
<!-- ee16e0c6f06144bdbe3b1b15bd0fa3d4 -->
<g id="node2" class="node">
<title>ee16e0c6f06144bdbe3b1b15bd0fa3d4</title>
<image xlink:href="/home/emumford/.local/lib/python3.13/site-packages/resources/programming/language/java.png" width="101px" height="101px" preserveAspectRatio="xMinYMin meet" x="88.5" y="-168"/>
<text text-anchor="middle" x="139" y="-52.6" font-family="Sans-Serif" font-size="13.00" fill="#2d3436">Identity</text>
</g>
<!-- 5d26cf1528424e1e81af274869412004&#45;&gt;ee16e0c6f06144bdbe3b1b15bd0fa3d4 -->
<g id="edge1" class="edge">
<title>5d26cf1528424e1e81af274869412004&#45;&gt;ee16e0c6f06144bdbe3b1b15bd0fa3d4</title>
<path fill="none" stroke="#7b8894" d="M175,-267.81C175,-267.81 175,-196.32 175,-196.32"/>
<polygon fill="#7b8894" stroke="#7b8894" points="178.5,-196.32 175,-186.32 171.5,-196.32 178.5,-196.32"/>
</g>
<!-- 7c871abdde8a4e2793e596cc0fbf3ac1 -->
<g id="node3" class="node">
<title>7c871abdde8a4e2793e596cc0fbf3ac1</title>
<image xlink:href="/home/emumford/.local/lib/python3.13/site-packages/resources/programming/language/java.png" width="101px" height="101px" preserveAspectRatio="xMinYMin meet" x="232.5" y="-168"/>
<text text-anchor="middle" x="283" y="-52.6" font-family="Sans-Serif" font-size="13.00" fill="#2d3436">State</text>
</g>
<!-- 5d26cf1528424e1e81af274869412004&#45;&gt;7c871abdde8a4e2793e596cc0fbf3ac1 -->
<g id="edge2" class="edge">
<title>5d26cf1528424e1e81af274869412004&#45;&gt;7c871abdde8a4e2793e596cc0fbf3ac1</title>
<path fill="none" stroke="#7b8894" d="M247,-267.81C247,-267.81 247,-196.32 247,-196.32"/>
<polygon fill="#7b8894" stroke="#7b8894" points="250.5,-196.32 247,-186.32 243.5,-196.32 250.5,-196.32"/>
</g>
<!-- bd6847a171254596ba45f1937a024e9c -->
<g id="node4" class="node">
<title>bd6847a171254596ba45f1937a024e9c</title>
<image xlink:href="/home/emumford/.local/lib/python3.13/site-packages/resources/programming/language/java.png" width="101px" height="101px" preserveAspectRatio="xMinYMin meet" x="304.5" y="-606"/>
<text text-anchor="middle" x="355" y="-490.6" font-family="Sans-Serif" font-size="13.00" fill="#2d3436">Machine</text>
</g>
<!-- bd6847a171254596ba45f1937a024e9c&#45;&gt;5d26cf1528424e1e81af274869412004 -->
<g id="edge3" class="edge">
<title>bd6847a171254596ba45f1937a024e9c&#45;&gt;5d26cf1528424e1e81af274869412004</title>
<path fill="none" stroke="#7b8894" d="M319,-486.95C319,-422.55 319,-336 319,-336 319,-336 271.52,-336 271.52,-336"/>
<polygon fill="#7b8894" stroke="#7b8894" points="271.52,-332.5 261.52,-336 271.52,-339.5 271.52,-332.5"/>
</g>
<!-- 8622b19840b34e0f8a5a8a47de6125a4 -->
<g id="node5" class="node">
<title>8622b19840b34e0f8a5a8a47de6125a4</title>
<image xlink:href="/home/emumford/.local/lib/python3.13/site-packages/resources/programming/language/java.png" width="101px" height="101px" preserveAspectRatio="xMinYMin meet" x="160.5" y="-606"/>
<text text-anchor="middle" x="211" y="-490.6" font-family="Sans-Serif" font-size="13.00" fill="#2d3436">Composite</text>
</g>
<!-- 8622b19840b34e0f8a5a8a47de6125a4&#45;&gt;5d26cf1528424e1e81af274869412004 -->
<g id="edge4" class="edge">
<title>8622b19840b34e0f8a5a8a47de6125a4&#45;&gt;5d26cf1528424e1e81af274869412004</title>
<path fill="none" stroke="#7b8894" d="M194.17,-486.81C194.17,-486.81 194.17,-415.32 194.17,-415.32"/>
<polygon fill="#7b8894" stroke="#7b8894" points="197.67,-415.32 194.17,-405.32 190.67,-415.32 197.67,-415.32"/>
</g>
<!-- bed365b8d5a9474280a3c8dc03c926f2 -->
<g id="node6" class="node">
<title>bed365b8d5a9474280a3c8dc03c926f2</title>
<image xlink:href="/home/emumford/.local/lib/python3.13/site-packages/resources/programming/language/java.png" width="101px" height="101px" preserveAspectRatio="xMinYMin meet" x="16.5" y="-606"/>
<text text-anchor="middle" x="67" y="-490.6" font-family="Sans-Serif" font-size="13.00" fill="#2d3436">DomainEvent</text>
</g>
<!-- 9ef9fb8d84894d53aee0e38410644469 -->
<g id="node7" class="node">
<title>9ef9fb8d84894d53aee0e38410644469</title>
<image xlink:href="/home/emumford/.local/lib/python3.13/site-packages/resources/programming/language/java.png" width="101px" height="101px" preserveAspectRatio="xMinYMin meet" x="808.5" y="-797"/>
<text text-anchor="middle" x="859" y="-681.6" font-family="Sans-Serif" font-size="13.00" fill="#2d3436">ComponentService</text>
</g>
<!-- 9ef9fb8d84894d53aee0e38410644469&#45;&gt;5d26cf1528424e1e81af274869412004 -->
<g id="edge5" class="edge">
<title>9ef9fb8d84894d53aee0e38410644469&#45;&gt;5d26cf1528424e1e81af274869412004</title>
<path fill="none" stroke="#7b8894" d="M859,-677.94C859,-589.25 859,-446 859,-446 859,-446 227.83,-446 227.83,-446 227.83,-446 227.83,-415.23 227.83,-415.23"/>
<polygon fill="#7b8894" stroke="#7b8894" points="231.33,-415.23 227.83,-405.23 224.33,-415.23 231.33,-415.23"/>
</g>
<!-- 9ef9fb8d84894d53aee0e38410644469&#45;&gt;bd6847a171254596ba45f1937a024e9c -->
<g id="edge6" class="edge">
<title>9ef9fb8d84894d53aee0e38410644469&#45;&gt;bd6847a171254596ba45f1937a024e9c</title>
<path fill="none" stroke="#7b8894" d="M808.37,-723C680.56,-723 355,-723 355,-723 355,-723 355,-634.11 355,-634.11"/>
<polygon fill="#7b8894" stroke="#7b8894" points="358.5,-634.11 355,-624.11 351.5,-634.11 358.5,-634.11"/>
</g>
<!-- 9ef9fb8d84894d53aee0e38410644469&#45;&gt;8622b19840b34e0f8a5a8a47de6125a4 -->
<g id="edge7" class="edge">
<title>9ef9fb8d84894d53aee0e38410644469&#45;&gt;8622b19840b34e0f8a5a8a47de6125a4</title>
<path fill="none" stroke="#7b8894" d="M808.42,-769C655.92,-769 211,-769 211,-769 211,-769 211,-634.23 211,-634.23"/>
<polygon fill="#7b8894" stroke="#7b8894" points="214.5,-634.23 211,-624.23 207.5,-634.23 214.5,-634.23"/>
</g>
<!-- 785c91fe25e0403aab2594336e809b5f -->
<g id="node8" class="node">
<title>785c91fe25e0403aab2594336e809b5f</title>
<image xlink:href="/home/emumford/.local/lib/python3.13/site-packages/resources/programming/language/java.png" width="101px" height="101px" preserveAspectRatio="xMinYMin meet" x="2104.5" y="-797"/>
<text text-anchor="middle" x="2155" y="-681.6" font-family="Sans-Serif" font-size="13.00" fill="#2d3436">NotificationService</text>
</g>
<!-- 3be5ac2a870b4b4fa7143bfef862caeb -->
<g id="node18" class="node">
<title>3be5ac2a870b4b4fa7143bfef862caeb</title>
<image xlink:href="/home/emumford/.local/lib/python3.13/site-packages/resources/programming/language/java.png" width="101px" height="101px" preserveAspectRatio="xMinYMin meet" x="2176.5" y="-606"/>
<text text-anchor="middle" x="2227" y="-490.6" font-family="Sans-Serif" font-size="13.00" fill="#2d3436">NotificationPort</text>
</g>
<!-- 785c91fe25e0403aab2594336e809b5f&#45;&gt;3be5ac2a870b4b4fa7143bfef862caeb -->
<g id="edge8" class="edge">
<title>785c91fe25e0403aab2594336e809b5f&#45;&gt;3be5ac2a870b4b4fa7143bfef862caeb</title>
<path fill="none" stroke="#7b8894" d="M2191,-677.81C2191,-677.81 2191,-634.22 2191,-634.22"/>
<polygon fill="#7b8894" stroke="#7b8894" points="2194.5,-634.22 2191,-624.22 2187.5,-634.22 2194.5,-634.22"/>
</g>
<!-- 4294976345254870bd0eb24b694fb71f -->
<g id="node9" class="node">
<title>4294976345254870bd0eb24b694fb71f</title>
<image xlink:href="/home/emumford/.local/lib/python3.13/site-packages/resources/programming/language/java.png" width="101px" height="101px" preserveAspectRatio="xMinYMin meet" x="1960.5" y="-797"/>
<text text-anchor="middle" x="2011" y="-681.6" font-family="Sans-Serif" font-size="13.00" fill="#2d3436">CacheService</text>
</g>
<!-- a0ca505cbfc5425b8656e90777cea5d3 -->
<g id="node19" class="node">
<title>a0ca505cbfc5425b8656e90777cea5d3</title>
<image xlink:href="/home/emumford/.local/lib/python3.13/site-packages/resources/programming/language/java.png" width="101px" height="101px" preserveAspectRatio="xMinYMin meet" x="2032.5" y="-606"/>
<text text-anchor="middle" x="2083" y="-490.6" font-family="Sans-Serif" font-size="13.00" fill="#2d3436">CachePort</text>
</g>
<!-- 4294976345254870bd0eb24b694fb71f&#45;&gt;a0ca505cbfc5425b8656e90777cea5d3 -->
<g id="edge9" class="edge">
<title>4294976345254870bd0eb24b694fb71f&#45;&gt;a0ca505cbfc5425b8656e90777cea5d3</title>
<path fill="none" stroke="#7b8894" d="M2047,-677.81C2047,-677.81 2047,-634.22 2047,-634.22"/>
<polygon fill="#7b8894" stroke="#7b8894" points="2050.5,-634.22 2047,-624.22 2043.5,-634.22 2050.5,-634.22"/>
</g>
<!-- a77aaa6bbed3474ea5c67459e1389d79 -->
<g id="node10" class="node">
<title>a77aaa6bbed3474ea5c67459e1389d79</title>
<image xlink:href="/home/emumford/.local/lib/python3.13/site-packages/resources/programming/language/java.png" width="101px" height="101px" preserveAspectRatio="xMinYMin meet" x="1816.5" y="-797"/>
<text text-anchor="middle" x="1867" y="-681.6" font-family="Sans-Serif" font-size="13.00" fill="#2d3436">FileSystemService</text>
</g>
<!-- b1a9cb3b69cf45f293d32fe150dc4062 -->
<g id="node20" class="node">
<title>b1a9cb3b69cf45f293d32fe150dc4062</title>
<image xlink:href="/home/emumford/.local/lib/python3.13/site-packages/resources/programming/language/java.png" width="101px" height="101px" preserveAspectRatio="xMinYMin meet" x="1888.5" y="-606"/>
<text text-anchor="middle" x="1939" y="-490.6" font-family="Sans-Serif" font-size="13.00" fill="#2d3436">FileSystemPort</text>
</g>
<!-- a77aaa6bbed3474ea5c67459e1389d79&#45;&gt;b1a9cb3b69cf45f293d32fe150dc4062 -->
<g id="edge10" class="edge">
<title>a77aaa6bbed3474ea5c67459e1389d79&#45;&gt;b1a9cb3b69cf45f293d32fe150dc4062</title>
<path fill="none" stroke="#7b8894" d="M1903,-677.81C1903,-677.81 1903,-634.22 1903,-634.22"/>
<polygon fill="#7b8894" stroke="#7b8894" points="1906.5,-634.22 1903,-624.22 1899.5,-634.22 1906.5,-634.22"/>
</g>
<!-- 08ff71e232394cca9ba318ca589f2461 -->
<g id="node11" class="node">
<title>08ff71e232394cca9ba318ca589f2461</title>
<image xlink:href="/home/emumford/.local/lib/python3.13/site-packages/resources/programming/language/java.png" width="101px" height="101px" preserveAspectRatio="xMinYMin meet" x="1672.5" y="-797"/>
<text text-anchor="middle" x="1723" y="-681.6" font-family="Sans-Serif" font-size="13.00" fill="#2d3436">ValidationService</text>
</g>
<!-- d5e6718e93e0405cac9e001fbf3729cd -->
<g id="node21" class="node">
<title>d5e6718e93e0405cac9e001fbf3729cd</title>
<image xlink:href="/home/emumford/.local/lib/python3.13/site-packages/resources/programming/language/java.png" width="101px" height="101px" preserveAspectRatio="xMinYMin meet" x="1744.5" y="-606"/>
<text text-anchor="middle" x="1795" y="-490.6" font-family="Sans-Serif" font-size="13.00" fill="#2d3436">ValidationPort</text>
</g>
<!-- 08ff71e232394cca9ba318ca589f2461&#45;&gt;d5e6718e93e0405cac9e001fbf3729cd -->
<g id="edge11" class="edge">
<title>08ff71e232394cca9ba318ca589f2461&#45;&gt;d5e6718e93e0405cac9e001fbf3729cd</title>
<path fill="none" stroke="#7b8894" d="M1759,-677.81C1759,-677.81 1759,-634.22 1759,-634.22"/>
<polygon fill="#7b8894" stroke="#7b8894" points="1762.5,-634.22 1759,-624.22 1755.5,-634.22 1762.5,-634.22"/>
</g>
<!-- a7424076701c41dc90f89fbc209fde21 -->
<g id="node12" class="node">
<title>a7424076701c41dc90f89fbc209fde21</title>
<image xlink:href="/home/emumford/.local/lib/python3.13/site-packages/resources/programming/language/java.png" width="101px" height="101px" preserveAspectRatio="xMinYMin meet" x="1528.5" y="-797"/>
<text text-anchor="middle" x="1579" y="-681.6" font-family="Sans-Serif" font-size="13.00" fill="#2d3436">PersistenceService</text>
</g>
<!-- 161a4bea4e2546ee930893bb2ecf759e -->
<g id="node22" class="node">
<title>161a4bea4e2546ee930893bb2ecf759e</title>
<image xlink:href="/home/emumford/.local/lib/python3.13/site-packages/resources/programming/language/java.png" width="101px" height="101px" preserveAspectRatio="xMinYMin meet" x="1600.5" y="-606"/>
<text text-anchor="middle" x="1651" y="-490.6" font-family="Sans-Serif" font-size="13.00" fill="#2d3436">PersistencePort</text>
</g>
<!-- a7424076701c41dc90f89fbc209fde21&#45;&gt;161a4bea4e2546ee930893bb2ecf759e -->
<g id="edge12" class="edge">
<title>a7424076701c41dc90f89fbc209fde21&#45;&gt;161a4bea4e2546ee930893bb2ecf759e</title>
<path fill="none" stroke="#7b8894" d="M1615,-677.81C1615,-677.81 1615,-634.22 1615,-634.22"/>
<polygon fill="#7b8894" stroke="#7b8894" points="1618.5,-634.22 1615,-624.22 1611.5,-634.22 1618.5,-634.22"/>
</g>
<!-- b25f216e5f9e4eb68de99cab8ae16653 -->
<g id="node13" class="node">
<title>b25f216e5f9e4eb68de99cab8ae16653</title>
<image xlink:href="/home/emumford/.local/lib/python3.13/site-packages/resources/programming/language/java.png" width="101px" height="101px" preserveAspectRatio="xMinYMin meet" x="1384.5" y="-797"/>
<text text-anchor="middle" x="1435" y="-681.6" font-family="Sans-Serif" font-size="13.00" fill="#2d3436">EventService</text>
</g>
<!-- 9ab5e54b5ac84413baa7559f006fd0a0 -->
<g id="node23" class="node">
<title>9ab5e54b5ac84413baa7559f006fd0a0</title>
<image xlink:href="/home/emumford/.local/lib/python3.13/site-packages/resources/programming/language/java.png" width="101px" height="101px" preserveAspectRatio="xMinYMin meet" x="1312.5" y="-606"/>
<text text-anchor="middle" x="1363" y="-490.6" font-family="Sans-Serif" font-size="13.00" fill="#2d3436">EventPublisherPort</text>
</g>
<!-- b25f216e5f9e4eb68de99cab8ae16653&#45;&gt;9ab5e54b5ac84413baa7559f006fd0a0 -->
<g id="edge13" class="edge">
<title>b25f216e5f9e4eb68de99cab8ae16653&#45;&gt;9ab5e54b5ac84413baa7559f006fd0a0</title>
<path fill="none" stroke="#7b8894" d="M1399,-677.81C1399,-677.81 1399,-634.22 1399,-634.22"/>
<polygon fill="#7b8894" stroke="#7b8894" points="1402.5,-634.22 1399,-624.22 1395.5,-634.22 1402.5,-634.22"/>
</g>
<!-- 445f90e9319640019e35f711fc4095e5 -->
<g id="node24" class="node">
<title>445f90e9319640019e35f711fc4095e5</title>
<image xlink:href="/home/emumford/.local/lib/python3.13/site-packages/resources/programming/language/java.png" width="101px" height="101px" preserveAspectRatio="xMinYMin meet" x="1456.5" y="-606"/>
<text text-anchor="middle" x="1507" y="-490.6" font-family="Sans-Serif" font-size="13.00" fill="#2d3436">DataFlowEventPort</text>
</g>
<!-- b25f216e5f9e4eb68de99cab8ae16653&#45;&gt;445f90e9319640019e35f711fc4095e5 -->
<g id="edge14" class="edge">
<title>b25f216e5f9e4eb68de99cab8ae16653&#45;&gt;445f90e9319640019e35f711fc4095e5</title>
<path fill="none" stroke="#7b8894" d="M1471,-677.81C1471,-677.81 1471,-634.22 1471,-634.22"/>
<polygon fill="#7b8894" stroke="#7b8894" points="1474.5,-634.22 1471,-624.22 1467.5,-634.22 1474.5,-634.22"/>
</g>
<!-- 0a5ed8c1ec234cb1871281288e059ba5 -->
<g id="node14" class="node">
<title>0a5ed8c1ec234cb1871281288e059ba5</title>
<image xlink:href="/home/emumford/.local/lib/python3.13/site-packages/resources/programming/language/java.png" width="101px" height="101px" preserveAspectRatio="xMinYMin meet" x="1240.5" y="-797"/>
<text text-anchor="middle" x="1291" y="-681.6" font-family="Sans-Serif" font-size="13.00" fill="#2d3436">SecurityService</text>
</g>
<!-- b6f89afca8ea48e29fe70918e0f189d1 -->
<g id="node25" class="node">
<title>b6f89afca8ea48e29fe70918e0f189d1</title>
<image xlink:href="/home/emumford/.local/lib/python3.13/site-packages/resources/programming/language/java.png" width="101px" height="101px" preserveAspectRatio="xMinYMin meet" x="1168.5" y="-606"/>
<text text-anchor="middle" x="1219" y="-490.6" font-family="Sans-Serif" font-size="13.00" fill="#2d3436">SecurityPort</text>
</g>
<!-- 0a5ed8c1ec234cb1871281288e059ba5&#45;&gt;b6f89afca8ea48e29fe70918e0f189d1 -->
<g id="edge15" class="edge">
<title>0a5ed8c1ec234cb1871281288e059ba5&#45;&gt;b6f89afca8ea48e29fe70918e0f189d1</title>
<path fill="none" stroke="#7b8894" d="M1255,-677.81C1255,-677.81 1255,-634.22 1255,-634.22"/>
<polygon fill="#7b8894" stroke="#7b8894" points="1258.5,-634.22 1255,-624.22 1251.5,-634.22 1258.5,-634.22"/>
</g>
<!-- abe5a4c20ff348e48815e69bc045a018 -->
<g id="node15" class="node">
<title>abe5a4c20ff348e48815e69bc045a018</title>
<image xlink:href="/home/emumford/.local/lib/python3.13/site-packages/resources/programming/language/java.png" width="101px" height="101px" preserveAspectRatio="xMinYMin meet" x="1096.5" y="-797"/>
<text text-anchor="middle" x="1147" y="-681.6" font-family="Sans-Serif" font-size="13.00" fill="#2d3436">MessagingService</text>
</g>
<!-- 704ca3fcd77b4c819b3dcefeb5620438 -->
<g id="node26" class="node">
<title>704ca3fcd77b4c819b3dcefeb5620438</title>
<image xlink:href="/home/emumford/.local/lib/python3.13/site-packages/resources/programming/language/java.png" width="101px" height="101px" preserveAspectRatio="xMinYMin meet" x="1024.5" y="-606"/>
<text text-anchor="middle" x="1075" y="-490.6" font-family="Sans-Serif" font-size="13.00" fill="#2d3436">MessagingPort</text>
</g>
<!-- abe5a4c20ff348e48815e69bc045a018&#45;&gt;704ca3fcd77b4c819b3dcefeb5620438 -->
<g id="edge16" class="edge">
<title>abe5a4c20ff348e48815e69bc045a018&#45;&gt;704ca3fcd77b4c819b3dcefeb5620438</title>
<path fill="none" stroke="#7b8894" d="M1111,-677.81C1111,-677.81 1111,-634.22 1111,-634.22"/>
<polygon fill="#7b8894" stroke="#7b8894" points="1114.5,-634.22 1111,-624.22 1107.5,-634.22 1114.5,-634.22"/>
</g>
<!-- 239c1e55701e49c7bf9607740a665104 -->
<g id="node16" class="node">
<title>239c1e55701e49c7bf9607740a665104</title>
<image xlink:href="/home/emumford/.local/lib/python3.13/site-packages/resources/programming/language/java.png" width="101px" height="101px" preserveAspectRatio="xMinYMin meet" x="952.5" y="-797"/>
<text text-anchor="middle" x="1003" y="-681.6" font-family="Sans-Serif" font-size="13.00" fill="#2d3436">TaskExecutionService</text>
</g>
<!-- f4acd55999bc426b91653d4f4f841266 -->
<g id="node27" class="node">
<title>f4acd55999bc426b91653d4f4f841266</title>
<image xlink:href="/home/emumford/.local/lib/python3.13/site-packages/resources/programming/language/java.png" width="101px" height="101px" preserveAspectRatio="xMinYMin meet" x="880.5" y="-606"/>
<text text-anchor="middle" x="931" y="-490.6" font-family="Sans-Serif" font-size="13.00" fill="#2d3436">TaskExecutionPort</text>
</g>
<!-- 239c1e55701e49c7bf9607740a665104&#45;&gt;f4acd55999bc426b91653d4f4f841266 -->
<g id="edge17" class="edge">
<title>239c1e55701e49c7bf9607740a665104&#45;&gt;f4acd55999bc426b91653d4f4f841266</title>
<path fill="none" stroke="#7b8894" d="M967,-677.81C967,-677.81 967,-634.22 967,-634.22"/>
<polygon fill="#7b8894" stroke="#7b8894" points="970.5,-634.22 967,-624.22 963.5,-634.22 970.5,-634.22"/>
</g>
<!-- 29e4261a95cc48b1938e3b380dafdf22 -->
<g id="node17" class="node">
<title>29e4261a95cc48b1938e3b380dafdf22</title>
<image xlink:href="/home/emumford/.local/lib/python3.13/site-packages/resources/programming/language/java.png" width="101px" height="101px" preserveAspectRatio="xMinYMin meet" x="2248.5" y="-797"/>
<text text-anchor="middle" x="2299" y="-681.6" font-family="Sans-Serif" font-size="13.00" fill="#2d3436">ConfigurationService</text>
</g>
<!-- b86355029f564f6c82065aff0812e732 -->
<g id="node28" class="node">
<title>b86355029f564f6c82065aff0812e732</title>
<image xlink:href="/home/emumford/.local/lib/python3.13/site-packages/resources/programming/language/java.png" width="101px" height="101px" preserveAspectRatio="xMinYMin meet" x="2320.5" y="-606"/>
<text text-anchor="middle" x="2371" y="-490.6" font-family="Sans-Serif" font-size="13.00" fill="#2d3436">ConfigurationPort</text>
</g>
<!-- 29e4261a95cc48b1938e3b380dafdf22&#45;&gt;b86355029f564f6c82065aff0812e732 -->
<g id="edge18" class="edge">
<title>29e4261a95cc48b1938e3b380dafdf22&#45;&gt;b86355029f564f6c82065aff0812e732</title>
<path fill="none" stroke="#7b8894" d="M2335,-677.81C2335,-677.81 2335,-634.22 2335,-634.22"/>
<polygon fill="#7b8894" stroke="#7b8894" points="2338.5,-634.22 2335,-624.22 2331.5,-634.22 2338.5,-634.22"/>
</g>
<!-- 389f727d09d4456794824c4cf54078d1 -->
<g id="node32" class="node">
<title>389f727d09d4456794824c4cf54078d1</title>
<image xlink:href="/home/emumford/.local/lib/python3.13/site-packages/resources/programming/language/java.png" width="101px" height="101px" preserveAspectRatio="xMinYMin meet" x="2176.5" y="-387"/>
<text text-anchor="middle" x="2227" y="-271.6" font-family="Sans-Serif" font-size="13.00" fill="#2d3436">NotificationAdapter</text>
</g>
<!-- 3be5ac2a870b4b4fa7143bfef862caeb&#45;&gt;389f727d09d4456794824c4cf54078d1 -->
<g id="edge19" class="edge">
<title>3be5ac2a870b4b4fa7143bfef862caeb&#45;&gt;389f727d09d4456794824c4cf54078d1</title>
<path fill="none" stroke="#7b8894" d="M2227,-476.81C2227,-476.81 2227,-405.32 2227,-405.32"/>
<polygon fill="#7b8894" stroke="#7b8894" points="2223.5,-476.81 2227,-486.81 2230.5,-476.81 2223.5,-476.81"/>
</g>
<!-- cf3dbedeb0df45c79872178195f56238 -->
<g id="node33" class="node">
<title>cf3dbedeb0df45c79872178195f56238</title>
<image xlink:href="/home/emumford/.local/lib/python3.13/site-packages/resources/programming/language/java.png" width="101px" height="101px" preserveAspectRatio="xMinYMin meet" x="2032.5" y="-387"/>
<text text-anchor="middle" x="2083" y="-271.6" font-family="Sans-Serif" font-size="13.00" fill="#2d3436">InMemoryCacheAdapter</text>
</g>
<!-- a0ca505cbfc5425b8656e90777cea5d3&#45;&gt;cf3dbedeb0df45c79872178195f56238 -->
<g id="edge20" class="edge">
<title>a0ca505cbfc5425b8656e90777cea5d3&#45;&gt;cf3dbedeb0df45c79872178195f56238</title>
<path fill="none" stroke="#7b8894" d="M2083,-476.81C2083,-476.81 2083,-405.32 2083,-405.32"/>
<polygon fill="#7b8894" stroke="#7b8894" points="2079.5,-476.81 2083,-486.81 2086.5,-476.81 2079.5,-476.81"/>
</g>
<!-- 8d980fdf5aa34b89a52427842abeb414 -->
<g id="node34" class="node">
<title>8d980fdf5aa34b89a52427842abeb414</title>
<image xlink:href="/home/emumford/.local/lib/python3.13/site-packages/resources/programming/language/java.png" width="101px" height="101px" preserveAspectRatio="xMinYMin meet" x="1888.5" y="-387"/>
<text text-anchor="middle" x="1939" y="-271.6" font-family="Sans-Serif" font-size="13.00" fill="#2d3436">StandardFileSystemAdapter</text>
</g>
<!-- b1a9cb3b69cf45f293d32fe150dc4062&#45;&gt;8d980fdf5aa34b89a52427842abeb414 -->
<g id="edge21" class="edge">
<title>b1a9cb3b69cf45f293d32fe150dc4062&#45;&gt;8d980fdf5aa34b89a52427842abeb414</title>
<path fill="none" stroke="#7b8894" d="M1939,-476.81C1939,-476.81 1939,-405.32 1939,-405.32"/>
<polygon fill="#7b8894" stroke="#7b8894" points="1935.5,-476.81 1939,-486.81 1942.5,-476.81 1935.5,-476.81"/>
</g>
<!-- 9ff0e2ca46e14b7ba7324d7747d68438 -->
<g id="node35" class="node">
<title>9ff0e2ca46e14b7ba7324d7747d68438</title>
<image xlink:href="/home/emumford/.local/lib/python3.13/site-packages/resources/programming/language/java.png" width="101px" height="101px" preserveAspectRatio="xMinYMin meet" x="1744.5" y="-387"/>
<text text-anchor="middle" x="1795" y="-271.6" font-family="Sans-Serif" font-size="13.00" fill="#2d3436">ValidationAdapter</text>
</g>
<!-- d5e6718e93e0405cac9e001fbf3729cd&#45;&gt;9ff0e2ca46e14b7ba7324d7747d68438 -->
<g id="edge22" class="edge">
<title>d5e6718e93e0405cac9e001fbf3729cd&#45;&gt;9ff0e2ca46e14b7ba7324d7747d68438</title>
<path fill="none" stroke="#7b8894" d="M1795,-476.81C1795,-476.81 1795,-405.32 1795,-405.32"/>
<polygon fill="#7b8894" stroke="#7b8894" points="1791.5,-476.81 1795,-486.81 1798.5,-476.81 1791.5,-476.81"/>
</g>
<!-- 5984b561bfd34f72894f05e21827068d -->
<g id="node36" class="node">
<title>5984b561bfd34f72894f05e21827068d</title>
<image xlink:href="/home/emumford/.local/lib/python3.13/site-packages/resources/programming/language/java.png" width="101px" height="101px" preserveAspectRatio="xMinYMin meet" x="1600.5" y="-387"/>
<text text-anchor="middle" x="1651" y="-271.6" font-family="Sans-Serif" font-size="13.00" fill="#2d3436">InMemoryPersistenceAdapter</text>
</g>
<!-- 161a4bea4e2546ee930893bb2ecf759e&#45;&gt;5984b561bfd34f72894f05e21827068d -->
<g id="edge23" class="edge">
<title>161a4bea4e2546ee930893bb2ecf759e&#45;&gt;5984b561bfd34f72894f05e21827068d</title>
<path fill="none" stroke="#7b8894" d="M1651,-476.81C1651,-476.81 1651,-405.32 1651,-405.32"/>
<polygon fill="#7b8894" stroke="#7b8894" points="1647.5,-476.81 1651,-486.81 1654.5,-476.81 1647.5,-476.81"/>
</g>
<!-- bd15e5ac9ee84ce6b8f1ce5af36b9f13 -->
<g id="node37" class="node">
<title>bd15e5ac9ee84ce6b8f1ce5af36b9f13</title>
<image xlink:href="/home/emumford/.local/lib/python3.13/site-packages/resources/programming/language/java.png" width="101px" height="101px" preserveAspectRatio="xMinYMin meet" x="1312.5" y="-387"/>
<text text-anchor="middle" x="1363" y="-271.6" font-family="Sans-Serif" font-size="13.00" fill="#2d3436">EventPublisherAdapter</text>
</g>
<!-- 9ab5e54b5ac84413baa7559f006fd0a0&#45;&gt;bd15e5ac9ee84ce6b8f1ce5af36b9f13 -->
<g id="edge24" class="edge">
<title>9ab5e54b5ac84413baa7559f006fd0a0&#45;&gt;bd15e5ac9ee84ce6b8f1ce5af36b9f13</title>
<path fill="none" stroke="#7b8894" d="M1363,-476.81C1363,-476.81 1363,-405.32 1363,-405.32"/>
<polygon fill="#7b8894" stroke="#7b8894" points="1359.5,-476.81 1363,-486.81 1366.5,-476.81 1359.5,-476.81"/>
</g>
<!-- b52650a5cc6b457da8f82fb595aa8387 -->
<g id="node38" class="node">
<title>b52650a5cc6b457da8f82fb595aa8387</title>
<image xlink:href="/home/emumford/.local/lib/python3.13/site-packages/resources/programming/language/java.png" width="101px" height="101px" preserveAspectRatio="xMinYMin meet" x="1456.5" y="-387"/>
<text text-anchor="middle" x="1507" y="-271.6" font-family="Sans-Serif" font-size="13.00" fill="#2d3436">InMemoryEventDispatcher</text>
</g>
<!-- 445f90e9319640019e35f711fc4095e5&#45;&gt;b52650a5cc6b457da8f82fb595aa8387 -->
<g id="edge25" class="edge">
<title>445f90e9319640019e35f711fc4095e5&#45;&gt;b52650a5cc6b457da8f82fb595aa8387</title>
<path fill="none" stroke="#7b8894" d="M1507,-476.81C1507,-476.81 1507,-405.32 1507,-405.32"/>
<polygon fill="#7b8894" stroke="#7b8894" points="1503.5,-476.81 1507,-486.81 1510.5,-476.81 1503.5,-476.81"/>
</g>
<!-- 6abad859f06042999586f5598651d8e3 -->
<g id="node39" class="node">
<title>6abad859f06042999586f5598651d8e3</title>
<image xlink:href="/home/emumford/.local/lib/python3.13/site-packages/resources/programming/language/java.png" width="101px" height="101px" preserveAspectRatio="xMinYMin meet" x="1168.5" y="-387"/>
<text text-anchor="middle" x="1219" y="-271.6" font-family="Sans-Serif" font-size="13.00" fill="#2d3436">SecurityAdapter</text>
</g>
<!-- b6f89afca8ea48e29fe70918e0f189d1&#45;&gt;6abad859f06042999586f5598651d8e3 -->
<g id="edge26" class="edge">
<title>b6f89afca8ea48e29fe70918e0f189d1&#45;&gt;6abad859f06042999586f5598651d8e3</title>
<path fill="none" stroke="#7b8894" d="M1219,-476.81C1219,-476.81 1219,-405.32 1219,-405.32"/>
<polygon fill="#7b8894" stroke="#7b8894" points="1215.5,-476.81 1219,-486.81 1222.5,-476.81 1215.5,-476.81"/>
</g>
<!-- 6fd2686f425e43f88737d788e474ba50 -->
<g id="node40" class="node">
<title>6fd2686f425e43f88737d788e474ba50</title>
<image xlink:href="/home/emumford/.local/lib/python3.13/site-packages/resources/programming/language/java.png" width="101px" height="101px" preserveAspectRatio="xMinYMin meet" x="1024.5" y="-387"/>
<text text-anchor="middle" x="1075" y="-271.6" font-family="Sans-Serif" font-size="13.00" fill="#2d3436">InMemoryMessagingAdapter</text>
</g>
<!-- 704ca3fcd77b4c819b3dcefeb5620438&#45;&gt;6fd2686f425e43f88737d788e474ba50 -->
<g id="edge27" class="edge">
<title>704ca3fcd77b4c819b3dcefeb5620438&#45;&gt;6fd2686f425e43f88737d788e474ba50</title>
<path fill="none" stroke="#7b8894" d="M1075,-476.81C1075,-476.81 1075,-405.32 1075,-405.32"/>
<polygon fill="#7b8894" stroke="#7b8894" points="1071.5,-476.81 1075,-486.81 1078.5,-476.81 1071.5,-476.81"/>
</g>
<!-- 4a59119f9add4657b01fd1661730209d -->
<g id="node41" class="node">
<title>4a59119f9add4657b01fd1661730209d</title>
<image xlink:href="/home/emumford/.local/lib/python3.13/site-packages/resources/programming/language/java.png" width="101px" height="101px" preserveAspectRatio="xMinYMin meet" x="880.5" y="-387"/>
<text text-anchor="middle" x="931" y="-271.6" font-family="Sans-Serif" font-size="13.00" fill="#2d3436">ThreadPoolTaskExecutionAdapter</text>
</g>
<!-- f4acd55999bc426b91653d4f4f841266&#45;&gt;4a59119f9add4657b01fd1661730209d -->
<g id="edge28" class="edge">
<title>f4acd55999bc426b91653d4f4f841266&#45;&gt;4a59119f9add4657b01fd1661730209d</title>
<path fill="none" stroke="#7b8894" d="M931,-476.81C931,-476.81 931,-405.32 931,-405.32"/>
<polygon fill="#7b8894" stroke="#7b8894" points="927.5,-476.81 931,-486.81 934.5,-476.81 927.5,-476.81"/>
</g>
<!-- 6ecbb630d7bc4e3fac076032bedf4279 -->
<g id="node42" class="node">
<title>6ecbb630d7bc4e3fac076032bedf4279</title>
<image xlink:href="/home/emumford/.local/lib/python3.13/site-packages/resources/programming/language/java.png" width="101px" height="101px" preserveAspectRatio="xMinYMin meet" x="2320.5" y="-387"/>
<text text-anchor="middle" x="2371" y="-271.6" font-family="Sans-Serif" font-size="13.00" fill="#2d3436">ConfigurationAdapter</text>
</g>
<!-- b86355029f564f6c82065aff0812e732&#45;&gt;6ecbb630d7bc4e3fac076032bedf4279 -->
<g id="edge29" class="edge">
<title>b86355029f564f6c82065aff0812e732&#45;&gt;6ecbb630d7bc4e3fac076032bedf4279</title>
<path fill="none" stroke="#7b8894" d="M2371,-476.81C2371,-476.81 2371,-405.32 2371,-405.32"/>
<polygon fill="#7b8894" stroke="#7b8894" points="2367.5,-476.81 2371,-486.81 2374.5,-476.81 2367.5,-476.81"/>
</g>
<!-- f204050ed392458588c46c9765a65fad -->
<g id="node29" class="node">
<title>f204050ed392458588c46c9765a65fad</title>
<image xlink:href="/home/emumford/.local/lib/python3.13/site-packages/resources/programming/language/java.png" width="101px" height="101px" preserveAspectRatio="xMinYMin meet" x="736.5" y="-606"/>
<text text-anchor="middle" x="787" y="-490.6" font-family="Sans-Serif" font-size="13.00" fill="#2d3436">TemplatePort</text>
</g>
<!-- 414ea221ceba429d82d4f2ca8d928280 -->
<g id="node43" class="node">
<title>414ea221ceba429d82d4f2ca8d928280</title>
<image xlink:href="/home/emumford/.local/lib/python3.13/site-packages/resources/programming/language/java.png" width="101px" height="101px" preserveAspectRatio="xMinYMin meet" x="736.5" y="-387"/>
<text text-anchor="middle" x="787" y="-271.6" font-family="Sans-Serif" font-size="13.00" fill="#2d3436">FreemarkerTemplateAdapter</text>
</g>
<!-- f204050ed392458588c46c9765a65fad&#45;&gt;414ea221ceba429d82d4f2ca8d928280 -->
<g id="edge30" class="edge">
<title>f204050ed392458588c46c9765a65fad&#45;&gt;414ea221ceba429d82d4f2ca8d928280</title>
<path fill="none" stroke="#7b8894" d="M787,-476.81C787,-476.81 787,-405.32 787,-405.32"/>
<polygon fill="#7b8894" stroke="#7b8894" points="783.5,-476.81 787,-486.81 790.5,-476.81 783.5,-476.81"/>
</g>
<!-- fd20688c5b84459b8d6d464b592558e2 -->
<g id="node30" class="node">
<title>fd20688c5b84459b8d6d464b592558e2</title>
<image xlink:href="/home/emumford/.local/lib/python3.13/site-packages/resources/programming/language/java.png" width="101px" height="101px" preserveAspectRatio="xMinYMin meet" x="592.5" y="-606"/>
<text text-anchor="middle" x="643" y="-490.6" font-family="Sans-Serif" font-size="13.00" fill="#2d3436">StoragePort</text>
</g>
<!-- 01ec95a0f1c7459caa04c21992507dc0 -->
<g id="node44" class="node">
<title>01ec95a0f1c7459caa04c21992507dc0</title>
<image xlink:href="/home/emumford/.local/lib/python3.13/site-packages/resources/programming/language/java.png" width="101px" height="101px" preserveAspectRatio="xMinYMin meet" x="592.5" y="-387"/>
<text text-anchor="middle" x="643" y="-271.6" font-family="Sans-Serif" font-size="13.00" fill="#2d3436">InMemoryStorageAdapter</text>
</g>
<!-- fd20688c5b84459b8d6d464b592558e2&#45;&gt;01ec95a0f1c7459caa04c21992507dc0 -->
<g id="edge31" class="edge">
<title>fd20688c5b84459b8d6d464b592558e2&#45;&gt;01ec95a0f1c7459caa04c21992507dc0</title>
<path fill="none" stroke="#7b8894" d="M643,-476.81C643,-476.81 643,-405.32 643,-405.32"/>
<polygon fill="#7b8894" stroke="#7b8894" points="639.5,-476.81 643,-486.81 646.5,-476.81 639.5,-476.81"/>
</g>
<!-- 42ebf9ad1dc04449bab2aa1fd10c816c -->
<g id="node31" class="node">
<title>42ebf9ad1dc04449bab2aa1fd10c816c</title>
<image xlink:href="/home/emumford/.local/lib/python3.13/site-packages/resources/programming/language/java.png" width="101px" height="101px" preserveAspectRatio="xMinYMin meet" x="448.5" y="-606"/>
<text text-anchor="middle" x="499" y="-490.6" font-family="Sans-Serif" font-size="13.00" fill="#2d3436">ComponentRepository</text>
</g>
<!-- d6c4327ee38f40d8b5df7c48736315dd -->
<g id="node45" class="node">
<title>d6c4327ee38f40d8b5df7c48736315dd</title>
<image xlink:href="/home/emumford/.local/lib/python3.13/site-packages/resources/programming/language/java.png" width="101px" height="101px" preserveAspectRatio="xMinYMin meet" x="448.5" y="-387"/>
<text text-anchor="middle" x="499" y="-271.6" font-family="Sans-Serif" font-size="13.00" fill="#2d3436">InMemoryComponentRepository</text>
</g>
<!-- 42ebf9ad1dc04449bab2aa1fd10c816c&#45;&gt;d6c4327ee38f40d8b5df7c48736315dd -->
<g id="edge32" class="edge">
<title>42ebf9ad1dc04449bab2aa1fd10c816c&#45;&gt;d6c4327ee38f40d8b5df7c48736315dd</title>
<path fill="none" stroke="#7b8894" d="M499,-476.81C499,-476.81 499,-405.32 499,-405.32"/>
<polygon fill="#7b8894" stroke="#7b8894" points="495.5,-476.81 499,-486.81 502.5,-476.81 495.5,-476.81"/>
</g>
<!-- 89b57e4c75ce455f83718ec6dab80c8f -->
<g id="node48" class="node">
<title>89b57e4c75ce455f83718ec6dab80c8f</title>
<image xlink:href="/home/emumford/.local/lib/python3.13/site-packages/resources/onprem/compute/server.png" width="101px" height="101px" preserveAspectRatio="xMinYMin meet" x="2104.5" y="-168"/>
<text text-anchor="middle" x="2155" y="-52.6" font-family="Sans-Serif" font-size="13.00" fill="#2d3436">Email Server</text>
</g>
<!-- 389f727d09d4456794824c4cf54078d1&#45;&gt;89b57e4c75ce455f83718ec6dab80c8f -->
<g id="edge33" class="edge">
<title>389f727d09d4456794824c4cf54078d1&#45;&gt;89b57e4c75ce455f83718ec6dab80c8f</title>
<path fill="none" stroke="#7b8894" d="M2195.83,-267.81C2195.83,-267.81 2195.83,-196.32 2195.83,-196.32"/>
<polygon fill="#7b8894" stroke="#7b8894" points="2199.33,-196.32 2195.83,-186.32 2192.33,-196.32 2199.33,-196.32"/>
</g>
<!-- 8addf7a9cf454c1191b493de313ab675 -->
<g id="node49" class="node">
<title>8addf7a9cf454c1191b493de313ab675</title>
<image xlink:href="/home/emumford/.local/lib/python3.13/site-packages/resources/onprem/compute/server.png" width="101px" height="101px" preserveAspectRatio="xMinYMin meet" x="1960.5" y="-168"/>
<text text-anchor="middle" x="2011" y="-52.6" font-family="Sans-Serif" font-size="13.00" fill="#2d3436">SMS Gateway</text>
</g>
<!-- 389f727d09d4456794824c4cf54078d1&#45;&gt;8addf7a9cf454c1191b493de313ab675 -->
<g id="edge34" class="edge">
<title>389f727d09d4456794824c4cf54078d1&#45;&gt;8addf7a9cf454c1191b493de313ab675</title>
<path fill="none" stroke="#7b8894" d="M2186.17,-267.89C2186.17,-239.46 2186.17,-213 2186.17,-213 2186.17,-213 2047,-213 2047,-213 2047,-213 2047,-196.14 2047,-196.14"/>
<polygon fill="#7b8894" stroke="#7b8894" points="2050.5,-196.14 2047,-186.14 2043.5,-196.14 2050.5,-196.14"/>
</g>
<!-- 386dd553054c4d49be3c0bef16e55fcc -->
<g id="node47" class="node">
<title>386dd553054c4d49be3c0bef16e55fcc</title>
<image xlink:href="/home/emumford/.local/lib/python3.13/site-packages/resources/generic/storage/storage.png" width="101px" height="101px" preserveAspectRatio="xMinYMin meet" x="1816.5" y="-168"/>
<text text-anchor="middle" x="1867" y="-52.6" font-family="Sans-Serif" font-size="13.00" fill="#2d3436">File System</text>
</g>
<!-- 8d980fdf5aa34b89a52427842abeb414&#45;&gt;386dd553054c4d49be3c0bef16e55fcc -->
<g id="edge35" class="edge">
<title>8d980fdf5aa34b89a52427842abeb414&#45;&gt;386dd553054c4d49be3c0bef16e55fcc</title>
<path fill="none" stroke="#7b8894" d="M1903,-267.81C1903,-267.81 1903,-196.32 1903,-196.32"/>
<polygon fill="#7b8894" stroke="#7b8894" points="1906.5,-196.32 1903,-186.32 1899.5,-196.32 1906.5,-196.32"/>
</g>
<!-- 06e123ca21e24690953b4b42190c64ac -->
<g id="node46" class="node">
<title>06e123ca21e24690953b4b42190c64ac</title>
<image xlink:href="/home/emumford/.local/lib/python3.13/site-packages/resources/onprem/database/postgresql.png" width="101px" height="101px" preserveAspectRatio="xMinYMin meet" x="1672.5" y="-168"/>
<text text-anchor="middle" x="1723" y="-52.6" font-family="Sans-Serif" font-size="13.00" fill="#2d3436">Database</text>
</g>
<!-- 5984b561bfd34f72894f05e21827068d&#45;&gt;06e123ca21e24690953b4b42190c64ac -->
<g id="edge36" class="edge">
<title>5984b561bfd34f72894f05e21827068d&#45;&gt;06e123ca21e24690953b4b42190c64ac</title>
<path fill="none" stroke="#7b8894" d="M1687,-267.81C1687,-267.81 1687,-196.32 1687,-196.32"/>
<polygon fill="#7b8894" stroke="#7b8894" points="1690.5,-196.32 1687,-186.32 1683.5,-196.32 1690.5,-196.32"/>
</g>
<!-- ad583b07fc1c42c68f45cc2818e27096 -->
<g id="node50" class="node">
<title>ad583b07fc1c42c68f45cc2818e27096</title>
<image xlink:href="/home/emumford/.local/lib/python3.13/site-packages/resources/onprem/queue/kafka.png" width="101px" height="101px" preserveAspectRatio="xMinYMin meet" x="1528.5" y="-168"/>
<text text-anchor="middle" x="1579" y="-52.6" font-family="Sans-Serif" font-size="13.00" fill="#2d3436">Message Bus</text>
</g>
<!-- bd15e5ac9ee84ce6b8f1ce5af36b9f13&#45;&gt;ad583b07fc1c42c68f45cc2818e27096 -->
<g id="edge37" class="edge">
<title>bd15e5ac9ee84ce6b8f1ce5af36b9f13&#45;&gt;ad583b07fc1c42c68f45cc2818e27096</title>
<path fill="none" stroke="#7b8894" d="M1399,-267.91C1399,-252.19 1399,-240 1399,-240 1399,-240 1538.17,-240 1538.17,-240 1538.17,-240 1538.17,-196.27 1538.17,-196.27"/>
<polygon fill="#7b8894" stroke="#7b8894" points="1541.67,-196.27 1538.17,-186.27 1534.67,-196.27 1541.67,-196.27"/>
</g>
<!-- b52650a5cc6b457da8f82fb595aa8387&#45;&gt;ad583b07fc1c42c68f45cc2818e27096 -->
<g id="edge38" class="edge">
<title>b52650a5cc6b457da8f82fb595aa8387&#45;&gt;ad583b07fc1c42c68f45cc2818e27096</title>
<path fill="none" stroke="#7b8894" d="M1547.83,-267.81C1547.83,-267.81 1547.83,-196.32 1547.83,-196.32"/>
<polygon fill="#7b8894" stroke="#7b8894" points="1551.33,-196.32 1547.83,-186.32 1544.33,-196.32 1551.33,-196.32"/>
</g>
<!-- e183034f2d0e4f6894dd8351f1bfb49e -->
<g id="node51" class="node">
<title>e183034f2d0e4f6894dd8351f1bfb49e</title>
<image xlink:href="/home/emumford/.local/lib/python3.13/site-packages/resources/onprem/monitoring/grafana.png" width="101px" height="104.945px" preserveAspectRatio="xMinYMin meet" x="1384.5" y="-169.973"/>
<text text-anchor="middle" x="1435" y="-52.6" font-family="Sans-Serif" font-size="13.00" fill="#2d3436">Monitoring</text>
</g>
</g>
</svg>
