<?xml version="1.0" encoding="UTF-8" standalone="no"?>
<!DOCTYPE svg PUBLIC "-//W3C//DTD SVG 1.1//EN"
 "http://www.w3.org/Graphics/SVG/1.1/DTD/svg11.dtd">
<!-- Generated by graphviz version 2.43.0 (0)
 -->
<!-- Title: Samstraumr System Context Pages: 1 -->
<svg width="871pt" height="1077pt"
 viewBox="0.00 0.00 871.00 1076.50" xmlns="http://www.w3.org/2000/svg" xmlns:xlink="http://www.w3.org/1999/xlink">
<g id="graph0" class="graph" transform="scale(1 1) rotate(0) translate(144 932.5)">
<title>Samstraumr System Context</title>
<polygon fill="white" stroke="transparent" points="-144,144 -144,-932.5 727,-932.5 727,144 -144,144"/>
<text text-anchor="middle" x="291.5" y="-9" font-family="Sans-Serif" font-size="15.00" fill="#2d3436">Samstraumr System Context</text>
<g id="clust1" class="cluster">
<title>cluster_Samstraumr Framework</title>
<path fill="#e5f5fd" stroke="#aeb6be" d="M159,-576C159,-576 563,-576 563,-576 569,-576 575,-582 575,-588 575,-588 575,-739 575,-739 575,-745 569,-751 563,-751 563,-751 159,-751 159,-751 153,-751 147,-745 147,-739 147,-739 147,-588 147,-588 147,-582 153,-576 159,-576"/>
<text text-anchor="middle" x="228.5" y="-737.4" font-family="Sans-Serif" font-size="12.00" fill="#2d3436">Samstraumr Framework</text>
</g>
<g id="clust2" class="cluster">
<title>cluster_External Systems</title>
<path fill="#e5f5fd" stroke="#aeb6be" d="M469,-33C469,-33 564,-33 564,-33 570,-33 576,-39 576,-45 576,-45 576,-556 576,-556 576,-562 570,-568 564,-568 564,-568 469,-568 469,-568 463,-568 457,-562 457,-556 457,-556 457,-45 457,-45 457,-39 463,-33 469,-33"/>
<text text-anchor="middle" x="516.5" y="-554.4" font-family="Sans-Serif" font-size="12.00" fill="#2d3436">External Systems</text>
</g>
<!-- 37df6fda31f8434498ba67ab21cff1f3 -->
<g id="node1" class="node">
<title>37df6fda31f8434498ba67ab21cff1f3</title>
<image xlink:href="/home/emumford/.local/lib/python3.13/site-packages/resources/onprem/client/users.png" width="101px" height="101px" preserveAspectRatio="xMinYMin meet" x="0" y="-770.5"/>
<text text-anchor="middle" x="50.5" y="-655.1" font-family="Sans-Serif" font-size="13.00" fill="#2d3436">Development Teams</text>
</g>
<!-- bb07a357cb234e01a558965540f122d4 -->
<g id="node2" class="node">
<title>bb07a357cb234e01a558965540f122d4</title>
<image xlink:href="/home/emumford/.local/lib/python3.13/site-packages/resources/programming/language/java.png" width="101px" height="101px" preserveAspectRatio="xMinYMin meet" x="310" y="-703.5"/>
<text text-anchor="middle" x="360.5" y="-588.1" font-family="Sans-Serif" font-size="13.00" fill="#2d3436">Samstraumr Core</text>
</g>
<!-- 37df6fda31f8434498ba67ab21cff1f3&#45;&gt;bb07a357cb234e01a558965540f122d4 -->
<g id="edge4" class="edge">
<title>37df6fda31f8434498ba67ab21cff1f3&#45;&gt;bb07a357cb234e01a558965540f122d4</title>
<path fill="none" stroke="#7b8894" d="M101.08,-755C189.06,-755 361,-755 361,-755 361,-755 361,-731.6 361,-731.6"/>
<polygon fill="#7b8894" stroke="#7b8894" points="364.5,-731.6 361,-721.6 357.5,-731.6 364.5,-731.6"/>
</g>
<!-- 9fa76b2879064be2858fd5419071a0f8 -->
<g id="node3" class="node">
<title>9fa76b2879064be2858fd5419071a0f8</title>
<image xlink:href="/home/emumford/.local/lib/python3.13/site-packages/resources/programming/language/java.png" width="101px" height="101px" preserveAspectRatio="xMinYMin meet" x="155" y="-703.5"/>
<text text-anchor="middle" x="205.5" y="-588.1" font-family="Sans-Serif" font-size="13.00" fill="#2d3436">API</text>
</g>
<!-- 37df6fda31f8434498ba67ab21cff1f3&#45;&gt;9fa76b2879064be2858fd5419071a0f8 -->
<g id="edge1" class="edge">
<title>37df6fda31f8434498ba67ab21cff1f3&#45;&gt;9fa76b2879064be2858fd5419071a0f8</title>
<path fill="none" stroke="#7b8894" d="M101.25,-686.5C101.25,-686.5 144.9,-686.5 144.9,-686.5"/>
<polygon fill="#7b8894" stroke="#7b8894" points="144.9,-690 154.9,-686.5 144.9,-683 144.9,-690"/>
</g>
<!-- 97336482a65949dca3854c9711bac6fd -->
<g id="node4" class="node">
<title>97336482a65949dca3854c9711bac6fd</title>
<image xlink:href="/home/emumford/.local/lib/python3.13/site-packages/resources/onprem/database/postgresql.png" width="101px" height="101px" preserveAspectRatio="xMinYMin meet" x="466" y="-703.5"/>
<text text-anchor="middle" x="516.5" y="-588.1" font-family="Sans-Serif" font-size="13.00" fill="#2d3436">Event Store</text>
</g>
<!-- bb07a357cb234e01a558965540f122d4&#45;&gt;97336482a65949dca3854c9711bac6fd -->
<g id="edge3" class="edge">
<title>bb07a357cb234e01a558965540f122d4&#45;&gt;97336482a65949dca3854c9711bac6fd</title>
<path fill="none" stroke="#7b8894" d="M411.15,-653C411.15,-653 455.84,-653 455.84,-653"/>
<polygon fill="#7b8894" stroke="#7b8894" points="455.84,-656.5 465.84,-653 455.84,-649.5 455.84,-656.5"/>
</g>
<!-- 536ff62876bb4a4fbcb7382d037c5d88 -->
<g id="node5" class="node">
<title>536ff62876bb4a4fbcb7382d037c5d88</title>
<image xlink:href="/home/emumford/.local/lib/python3.13/site-packages/resources/onprem/compute/server.png" width="101px" height="101px" preserveAspectRatio="xMinYMin meet" x="466" y="-340.5"/>
<text text-anchor="middle" x="516.5" y="-225.1" font-family="Sans-Serif" font-size="13.00" fill="#2d3436">Version Control</text>
</g>
<!-- bb07a357cb234e01a558965540f122d4&#45;&gt;536ff62876bb4a4fbcb7382d037c5d88 -->
<g id="edge5" class="edge">
<title>bb07a357cb234e01a558965540f122d4&#45;&gt;536ff62876bb4a4fbcb7382d037c5d88</title>
<path fill="none" stroke="#7b8894" d="M344,-584.3C344,-479.06 344,-290 344,-290 344,-290 455.68,-290 455.68,-290"/>
<polygon fill="#7b8894" stroke="#7b8894" points="455.68,-293.5 465.68,-290 455.68,-286.5 455.68,-293.5"/>
</g>
<!-- a2d5154955444c4d9f003d7d4cea6f3a -->
<g id="node7" class="node">
<title>a2d5154955444c4d9f003d7d4cea6f3a</title>
<image xlink:href="/home/emumford/.local/lib/python3.13/site-packages/resources/generic/storage/storage.png" width="101px" height="101px" preserveAspectRatio="xMinYMin meet" x="466" y="-520.5"/>
<text text-anchor="middle" x="516.5" y="-405.1" font-family="Sans-Serif" font-size="13.00" fill="#2d3436">Document Repository</text>
</g>
<!-- bb07a357cb234e01a558965540f122d4&#45;&gt;a2d5154955444c4d9f003d7d4cea6f3a -->
<g id="edge6" class="edge">
<title>bb07a357cb234e01a558965540f122d4&#45;&gt;a2d5154955444c4d9f003d7d4cea6f3a</title>
<path fill="none" stroke="#7b8894" d="M378,-584.34C378,-532.41 378,-470 378,-470 378,-470 455.71,-470 455.71,-470"/>
<polygon fill="#7b8894" stroke="#7b8894" points="455.71,-473.5 465.71,-470 455.71,-466.5 455.71,-473.5"/>
</g>
<!-- 9fa76b2879064be2858fd5419071a0f8&#45;&gt;bb07a357cb234e01a558965540f122d4 -->
<g id="edge2" class="edge">
<title>9fa76b2879064be2858fd5419071a0f8&#45;&gt;bb07a357cb234e01a558965540f122d4</title>
<path fill="none" stroke="#7b8894" d="M256.25,-653C256.25,-653 299.9,-653 299.9,-653"/>
<polygon fill="#7b8894" stroke="#7b8894" points="299.9,-656.5 309.9,-653 299.9,-649.5 299.9,-656.5"/>
</g>
<!-- 1d340408174e4f3580e8c4a5cfa34319 -->
<g id="node6" class="node">
<title>1d340408174e4f3580e8c4a5cfa34319</title>
<image xlink:href="/home/emumford/.local/lib/python3.13/site-packages/resources/onprem/compute/server.png" width="101px" height="101px" preserveAspectRatio="xMinYMin meet" x="466" y="-160.5"/>
<text text-anchor="middle" x="516.5" y="-45.1" font-family="Sans-Serif" font-size="13.00" fill="#2d3436">CI/CD System</text>
</g>
<!-- 9fa76b2879064be2858fd5419071a0f8&#45;&gt;1d340408174e4f3580e8c4a5cfa34319 -->
<g id="edge7" class="edge">
<title>9fa76b2879064be2858fd5419071a0f8&#45;&gt;1d340408174e4f3580e8c4a5cfa34319</title>
<path fill="none" stroke="#7b8894" d="M206,-584.23C206,-438.11 206,-110 206,-110 206,-110 455.92,-110 455.92,-110"/>
<polygon fill="#7b8894" stroke="#7b8894" points="455.92,-113.5 465.92,-110 455.92,-106.5 455.92,-113.5"/>
</g>
</g>
</svg>
