<?xml version="1.0" encoding="UTF-8" standalone="no"?>
<!DOCTYPE svg PUBLIC "-//W3C//DTD SVG 1.1//EN"
 "http://www.w3.org/Graphics/SVG/1.1/DTD/svg11.dtd">
<!-- Generated by graphviz version 2.43.0 (0)
 -->
<!-- Title: Samstraumr Clean Architecture with Ports and Adapters Pages: 1 -->
<svg width="1591pt" height="1324pt"
 viewBox="0.00 0.00 1591.00 1324.00" xmlns="http://www.w3.org/2000/svg" xmlns:xlink="http://www.w3.org/1999/xlink">
<g id="graph0" class="graph" transform="scale(1 1) rotate(0) translate(144 1180)">
<title>Samstraumr Clean Architecture with Ports and Adapters</title>
<polygon fill="white" stroke="transparent" points="-144,144 -144,-1180 1447,-1180 1447,144 -144,144"/>
<text text-anchor="middle" x="651.5" y="-9" font-family="Sans-Serif" font-size="15.00" fill="#2d3436">Samstraumr Clean Architecture with Ports and Adapters</text>
<g id="clust1" class="cluster">
<title>cluster_Core Domain Layer</title>
<path fill="#e5f5fd" stroke="#aeb6be" d="M20,-33C20,-33 128,-33 128,-33 134,-33 140,-39 140,-45 140,-45 140,-605 140,-605 140,-611 134,-617 128,-617 128,-617 20,-617 20,-617 14,-617 8,-611 8,-605 8,-605 8,-45 8,-45 8,-39 14,-33 20,-33"/>
<text text-anchor="middle" x="74" y="-603.4" font-family="Sans-Serif" font-size="12.00" fill="#2d3436">Core Domain Layer</text>
</g>
<g id="clust2" class="cluster">
<title>cluster_Application Layer</title>
<path fill="#e5f5fd" stroke="#aeb6be" d="M165,-435C165,-435 851,-435 851,-435 857,-435 863,-441 863,-447 863,-447 863,-1016 863,-1016 863,-1022 857,-1028 851,-1028 851,-1028 165,-1028 165,-1028 159,-1028 153,-1022 153,-1016 153,-1016 153,-447 153,-447 153,-441 159,-435 165,-435"/>
<text text-anchor="middle" x="213" y="-1014.4" font-family="Sans-Serif" font-size="12.00" fill="#2d3436">Application Layer</text>
</g>
<g id="clust3" class="cluster">
<title>cluster_Input Ports</title>
<path fill="#ebf3e7" stroke="#aeb6be" d="M461,-825C461,-825 843,-825 843,-825 849,-825 855,-831 855,-837 855,-837 855,-987 855,-987 855,-993 849,-999 843,-999 843,-999 461,-999 461,-999 455,-999 449,-993 449,-987 449,-987 449,-837 449,-837 449,-831 455,-825 461,-825"/>
<text text-anchor="middle" x="489.5" y="-985.4" font-family="Sans-Serif" font-size="12.00" fill="#2d3436">Input Ports</text>
</g>
<g id="clust4" class="cluster">
<title>cluster_Output Ports</title>
<path fill="#ebf3e7" stroke="#aeb6be" d="M173,-443C173,-443 843,-443 843,-443 849,-443 855,-449 855,-455 855,-455 855,-605 855,-605 855,-611 849,-617 843,-617 843,-617 173,-617 173,-617 167,-617 161,-611 161,-605 161,-605 161,-455 161,-455 161,-449 167,-443 173,-443"/>
<text text-anchor="middle" x="207" y="-603.4" font-family="Sans-Serif" font-size="12.00" fill="#2d3436">Output Ports</text>
</g>
<g id="clust5" class="cluster">
<title>cluster_Adapter Layer</title>
<path fill="#e5f5fd" stroke="#aeb6be" d="M165,-216C165,-216 1283,-216 1283,-216 1289,-216 1295,-222 1295,-228 1295,-228 1295,-415 1295,-415 1295,-421 1289,-427 1283,-427 1283,-427 165,-427 165,-427 159,-427 153,-421 153,-415 153,-415 153,-228 153,-228 153,-222 159,-216 165,-216"/>
<text text-anchor="middle" x="204" y="-413.4" font-family="Sans-Serif" font-size="12.00" fill="#2d3436">Adapter Layer</text>
</g>
<g id="clust6" class="cluster">
<title>cluster_Input Adapters</title>
<path fill="#ebf3e7" stroke="#aeb6be" d="M893,-224C893,-224 1275,-224 1275,-224 1281,-224 1287,-230 1287,-236 1287,-236 1287,-386 1287,-386 1287,-392 1281,-398 1275,-398 1275,-398 893,-398 893,-398 887,-398 881,-392 881,-386 881,-386 881,-236 881,-236 881,-230 887,-224 893,-224"/>
<text text-anchor="middle" x="933.5" y="-384.4" font-family="Sans-Serif" font-size="12.00" fill="#2d3436">Input Adapters</text>
</g>
<g id="clust7" class="cluster">
<title>cluster_Output Adapters</title>
<path fill="#ebf3e7" stroke="#aeb6be" d="M173,-224C173,-224 843,-224 843,-224 849,-224 855,-230 855,-236 855,-236 855,-386 855,-386 855,-392 849,-398 843,-398 843,-398 173,-398 173,-398 167,-398 161,-392 161,-386 161,-386 161,-236 161,-236 161,-230 167,-224 173,-224"/>
<text text-anchor="middle" x="219" y="-384.4" font-family="Sans-Serif" font-size="12.00" fill="#2d3436">Output Adapters</text>
</g>
<g id="clust8" class="cluster">
<title>cluster_Infrastructure Layer</title>
<path fill="#e5f5fd" stroke="#aeb6be" d="M461,-33C461,-33 987,-33 987,-33 993,-33 999,-39 999,-45 999,-45 999,-195 999,-195 999,-201 993,-207 987,-207 987,-207 461,-207 461,-207 455,-207 449,-201 449,-195 449,-195 449,-45 449,-45 449,-39 455,-33 461,-33"/>
<text text-anchor="middle" x="517.5" y="-193.4" font-family="Sans-Serif" font-size="12.00" fill="#2d3436">Infrastructure Layer</text>
</g>
<!-- 71a42ca4105344f292706ced22f1f524 -->
<g id="node1" class="node">
<title>71a42ca4105344f292706ced22f1f524</title>
<image xlink:href="/home/emumford/.local/lib/python3.13/site-packages/resources/programming/language/java.png" width="101px" height="101px" preserveAspectRatio="xMinYMin meet" x="20.5" y="-351"/>
<text text-anchor="middle" x="71" y="-235.6" font-family="Sans-Serif" font-size="13.00" fill="#2d3436">Domain Entities</text>
</g>
<!-- aa746f480afd444e81f23a150197279e -->
<g id="node2" class="node">
<title>aa746f480afd444e81f23a150197279e</title>
<image xlink:href="/home/emumford/.local/lib/python3.13/site-packages/resources/programming/language/java.png" width="101px" height="101px" preserveAspectRatio="xMinYMin meet" x="20.5" y="-160"/>
<text text-anchor="middle" x="71" y="-44.6" font-family="Sans-Serif" font-size="13.00" fill="#2d3436">Value Objects</text>
</g>
<!-- 71a42ca4105344f292706ced22f1f524&#45;&gt;aa746f480afd444e81f23a150197279e -->
<g id="edge1" class="edge">
<title>71a42ca4105344f292706ced22f1f524&#45;&gt;aa746f480afd444e81f23a150197279e</title>
<path fill="none" stroke="#7b8894" d="M71,-231.81C71,-231.81 71,-188.22 71,-188.22"/>
<polygon fill="#7b8894" stroke="#7b8894" points="74.5,-188.22 71,-178.22 67.5,-188.22 74.5,-188.22"/>
</g>
<!-- a5f8afe8e9ed49538e56da9ac7f652b3 -->
<g id="node3" class="node">
<title>a5f8afe8e9ed49538e56da9ac7f652b3</title>
<image xlink:href="/home/emumford/.local/lib/python3.13/site-packages/resources/programming/language/java.png" width="101px" height="101px" preserveAspectRatio="xMinYMin meet" x="25.5" y="-570"/>
<text text-anchor="middle" x="76" y="-454.6" font-family="Sans-Serif" font-size="13.00" fill="#2d3436">Domain Services</text>
</g>
<!-- a5f8afe8e9ed49538e56da9ac7f652b3&#45;&gt;71a42ca4105344f292706ced22f1f524 -->
<g id="edge2" class="edge">
<title>a5f8afe8e9ed49538e56da9ac7f652b3&#45;&gt;71a42ca4105344f292706ced22f1f524</title>
<path fill="none" stroke="#7b8894" d="M73.5,-450.81C73.5,-450.81 73.5,-379.32 73.5,-379.32"/>
<polygon fill="#7b8894" stroke="#7b8894" points="77,-379.32 73.5,-369.32 70,-379.32 77,-379.32"/>
</g>
<!-- aac28102f5114c4889c41a924575e52b -->
<g id="node4" class="node">
<title>aac28102f5114c4889c41a924575e52b</title>
<image xlink:href="/home/emumford/.local/lib/python3.13/site-packages/resources/programming/language/java.png" width="101px" height="101px" preserveAspectRatio="xMinYMin meet" x="457.5" y="-761"/>
<text text-anchor="middle" x="508" y="-645.6" font-family="Sans-Serif" font-size="13.00" fill="#2d3436">Use Cases</text>
</g>
<!-- aac28102f5114c4889c41a924575e52b&#45;&gt;71a42ca4105344f292706ced22f1f524 -->
<g id="edge4" class="edge">
<title>aac28102f5114c4889c41a924575e52b&#45;&gt;71a42ca4105344f292706ced22f1f524</title>
<path fill="none" stroke="#7b8894" d="M457.18,-724C357.95,-724 148,-724 148,-724 148,-724 148,-300 148,-300 148,-300 131.5,-300 131.5,-300"/>
<polygon fill="#7b8894" stroke="#7b8894" points="131.5,-296.5 121.5,-300 131.5,-303.5 131.5,-296.5"/>
</g>
<!-- aac28102f5114c4889c41a924575e52b&#45;&gt;a5f8afe8e9ed49538e56da9ac7f652b3 -->
<g id="edge3" class="edge">
<title>aac28102f5114c4889c41a924575e52b&#45;&gt;a5f8afe8e9ed49538e56da9ac7f652b3</title>
<path fill="none" stroke="#7b8894" d="M457.17,-751C342.98,-751 76,-751 76,-751 76,-751 76,-598.02 76,-598.02"/>
<polygon fill="#7b8894" stroke="#7b8894" points="79.5,-598.02 76,-588.02 72.5,-598.02 79.5,-598.02"/>
</g>
<!-- fbdb9dfb202444a7b1beab3bc94e7f14 -->
<g id="node8" class="node">
<title>fbdb9dfb202444a7b1beab3bc94e7f14</title>
<image xlink:href="/home/emumford/.local/lib/python3.13/site-packages/resources/programming/language/java.png" width="101px" height="101px" preserveAspectRatio="xMinYMin meet" x="745.5" y="-570"/>
<text text-anchor="middle" x="796" y="-454.6" font-family="Sans-Serif" font-size="13.00" fill="#2d3436">PersistencePort</text>
</g>
<!-- aac28102f5114c4889c41a924575e52b&#45;&gt;fbdb9dfb202444a7b1beab3bc94e7f14 -->
<g id="edge8" class="edge">
<title>aac28102f5114c4889c41a924575e52b&#45;&gt;fbdb9dfb202444a7b1beab3bc94e7f14</title>
<path fill="none" stroke="#7b8894" d="M558.68,-696C645.36,-696 812.83,-696 812.83,-696 812.83,-696 812.83,-598.24 812.83,-598.24"/>
<polygon fill="#7b8894" stroke="#7b8894" points="816.33,-598.24 812.83,-588.24 809.33,-598.24 816.33,-598.24"/>
</g>
<!-- 14520c640b2c499f9be4e576be40bc21 -->
<g id="node9" class="node">
<title>14520c640b2c499f9be4e576be40bc21</title>
<image xlink:href="/home/emumford/.local/lib/python3.13/site-packages/resources/programming/language/java.png" width="101px" height="101px" preserveAspectRatio="xMinYMin meet" x="601.5" y="-570"/>
<text text-anchor="middle" x="652" y="-454.6" font-family="Sans-Serif" font-size="13.00" fill="#2d3436">NotificationPort</text>
</g>
<!-- aac28102f5114c4889c41a924575e52b&#45;&gt;14520c640b2c499f9be4e576be40bc21 -->
<g id="edge9" class="edge">
<title>aac28102f5114c4889c41a924575e52b&#45;&gt;14520c640b2c499f9be4e576be40bc21</title>
<path fill="none" stroke="#7b8894" d="M558.88,-669C610.33,-669 682.3,-669 682.3,-669 682.3,-669 682.3,-598.12 682.3,-598.12"/>
<polygon fill="#7b8894" stroke="#7b8894" points="685.8,-598.12 682.3,-588.12 678.8,-598.12 685.8,-598.12"/>
</g>
<!-- 11f7ba8fb9bf4b22bae2abaaa19a2fa1 -->
<g id="node10" class="node">
<title>11f7ba8fb9bf4b22bae2abaaa19a2fa1</title>
<image xlink:href="/home/emumford/.local/lib/python3.13/site-packages/resources/programming/language/java.png" width="101px" height="101px" preserveAspectRatio="xMinYMin meet" x="457.5" y="-570"/>
<text text-anchor="middle" x="508" y="-454.6" font-family="Sans-Serif" font-size="13.00" fill="#2d3436">EventPublisherPort</text>
</g>
<!-- aac28102f5114c4889c41a924575e52b&#45;&gt;11f7ba8fb9bf4b22bae2abaaa19a2fa1 -->
<g id="edge10" class="edge">
<title>aac28102f5114c4889c41a924575e52b&#45;&gt;11f7ba8fb9bf4b22bae2abaaa19a2fa1</title>
<path fill="none" stroke="#7b8894" d="M508,-641.81C508,-641.81 508,-598.22 508,-598.22"/>
<polygon fill="#7b8894" stroke="#7b8894" points="511.5,-598.22 508,-588.22 504.5,-598.22 511.5,-598.22"/>
</g>
<!-- cd93afd6ead943679308ab9b3c7cd307 -->
<g id="node11" class="node">
<title>cd93afd6ead943679308ab9b3c7cd307</title>
<image xlink:href="/home/emumford/.local/lib/python3.13/site-packages/resources/programming/language/java.png" width="101px" height="101px" preserveAspectRatio="xMinYMin meet" x="313.5" y="-570"/>
<text text-anchor="middle" x="364" y="-454.6" font-family="Sans-Serif" font-size="13.00" fill="#2d3436">FileSystemPort</text>
</g>
<!-- aac28102f5114c4889c41a924575e52b&#45;&gt;cd93afd6ead943679308ab9b3c7cd307 -->
<g id="edge11" class="edge">
<title>aac28102f5114c4889c41a924575e52b&#45;&gt;cd93afd6ead943679308ab9b3c7cd307</title>
<path fill="none" stroke="#7b8894" d="M457.23,-669C415.77,-669 364,-669 364,-669 364,-669 364,-598.12 364,-598.12"/>
<polygon fill="#7b8894" stroke="#7b8894" points="367.5,-598.12 364,-588.12 360.5,-598.12 367.5,-598.12"/>
</g>
<!-- 8c298b687acc405ab96c850661bcfb40 -->
<g id="node12" class="node">
<title>8c298b687acc405ab96c850661bcfb40</title>
<image xlink:href="/home/emumford/.local/lib/python3.13/site-packages/resources/programming/language/java.png" width="101px" height="101px" preserveAspectRatio="xMinYMin meet" x="169.5" y="-570"/>
<text text-anchor="middle" x="220" y="-454.6" font-family="Sans-Serif" font-size="13.00" fill="#2d3436">CachePort</text>
</g>
<!-- aac28102f5114c4889c41a924575e52b&#45;&gt;8c298b687acc405ab96c850661bcfb40 -->
<g id="edge12" class="edge">
<title>aac28102f5114c4889c41a924575e52b&#45;&gt;8c298b687acc405ab96c850661bcfb40</title>
<path fill="none" stroke="#7b8894" d="M457.17,-696C374.5,-696 220,-696 220,-696 220,-696 220,-598.24 220,-598.24"/>
<polygon fill="#7b8894" stroke="#7b8894" points="223.5,-598.24 220,-588.24 216.5,-598.24 223.5,-598.24"/>
</g>
<!-- 91420dff448b43e8ad27b8961f6a0cd2 -->
<g id="node5" class="node">
<title>91420dff448b43e8ad27b8961f6a0cd2</title>
<image xlink:href="/home/emumford/.local/lib/python3.13/site-packages/resources/programming/language/java.png" width="101px" height="101px" preserveAspectRatio="xMinYMin meet" x="601.5" y="-952"/>
<text text-anchor="middle" x="652" y="-836.6" font-family="Sans-Serif" font-size="13.00" fill="#2d3436">ComponentPort</text>
</g>
<!-- 91420dff448b43e8ad27b8961f6a0cd2&#45;&gt;aac28102f5114c4889c41a924575e52b -->
<g id="edge5" class="edge">
<title>91420dff448b43e8ad27b8961f6a0cd2&#45;&gt;aac28102f5114c4889c41a924575e52b</title>
<path fill="none" stroke="#7b8894" d="M662.1,-832.86C662.1,-793.16 662.1,-751 662.1,-751 662.1,-751 568.89,-751 568.89,-751"/>
<polygon fill="#7b8894" stroke="#7b8894" points="568.89,-747.5 558.89,-751 568.89,-754.5 568.89,-747.5"/>
</g>
<!-- 7c3a3eafb8584b7a8fa468a0a8a81097 -->
<g id="node13" class="node">
<title>7c3a3eafb8584b7a8fa468a0a8a81097</title>
<image xlink:href="/home/emumford/.local/lib/python3.13/site-packages/resources/programming/language/java.png" width="101px" height="101px" preserveAspectRatio="xMinYMin meet" x="889.5" y="-351"/>
<text text-anchor="middle" x="940" y="-235.6" font-family="Sans-Serif" font-size="13.00" fill="#2d3436">REST Adapter</text>
</g>
<!-- 91420dff448b43e8ad27b8961f6a0cd2&#45;&gt;7c3a3eafb8584b7a8fa468a0a8a81097 -->
<g id="edge13" class="edge">
<title>91420dff448b43e8ad27b8961f6a0cd2&#45;&gt;7c3a3eafb8584b7a8fa468a0a8a81097</title>
<path fill="none" stroke="#7b8894" d="M621.7,-822.96C621.7,-822.96 621.7,-797 621.7,-797 621.7,-797 940,-797 940,-797 940,-797 940,-505.22 940,-369.01"/>
<polygon fill="#7b8894" stroke="#7b8894" points="618.2,-822.96 621.7,-832.96 625.2,-822.96 618.2,-822.96"/>
</g>
<!-- c412d2850eec4c36b07d73346b4e4084 -->
<g id="node14" class="node">
<title>c412d2850eec4c36b07d73346b4e4084</title>
<image xlink:href="/home/emumford/.local/lib/python3.13/site-packages/resources/programming/language/java.png" width="101px" height="101px" preserveAspectRatio="xMinYMin meet" x="1033.5" y="-351"/>
<text text-anchor="middle" x="1084" y="-235.6" font-family="Sans-Serif" font-size="13.00" fill="#2d3436">CLI Adapter</text>
</g>
<!-- 91420dff448b43e8ad27b8961f6a0cd2&#45;&gt;c412d2850eec4c36b07d73346b4e4084 -->
<g id="edge14" class="edge">
<title>91420dff448b43e8ad27b8961f6a0cd2&#45;&gt;c412d2850eec4c36b07d73346b4e4084</title>
<path fill="none" stroke="#7b8894" d="M641.9,-822.92C641.9,-822.92 641.9,-815 641.9,-815 641.9,-815 1084,-815 1084,-815 1084,-815 1084,-509.16 1084,-369.09"/>
<polygon fill="#7b8894" stroke="#7b8894" points="638.4,-822.92 641.9,-832.92 645.4,-822.92 638.4,-822.92"/>
</g>
<!-- c92424785aa9452cb39b2b78d26f73b0 -->
<g id="node6" class="node">
<title>c92424785aa9452cb39b2b78d26f73b0</title>
<image xlink:href="/home/emumford/.local/lib/python3.13/site-packages/resources/programming/language/java.png" width="101px" height="101px" preserveAspectRatio="xMinYMin meet" x="745.5" y="-952"/>
<text text-anchor="middle" x="796" y="-836.6" font-family="Sans-Serif" font-size="13.00" fill="#2d3436">MachinePort</text>
</g>
<!-- c92424785aa9452cb39b2b78d26f73b0&#45;&gt;aac28102f5114c4889c41a924575e52b -->
<g id="edge6" class="edge">
<title>c92424785aa9452cb39b2b78d26f73b0&#45;&gt;aac28102f5114c4889c41a924575e52b</title>
<path fill="none" stroke="#7b8894" d="M779.17,-832.87C779.17,-782.93 779.17,-724 779.17,-724 779.17,-724 568.69,-724 568.69,-724"/>
<polygon fill="#7b8894" stroke="#7b8894" points="568.69,-720.5 558.69,-724 568.69,-727.5 568.69,-720.5"/>
</g>
<!-- 10bc62148f9743209f5f1687c06040c1 -->
<g id="node15" class="node">
<title>10bc62148f9743209f5f1687c06040c1</title>
<image xlink:href="/home/emumford/.local/lib/python3.13/site-packages/resources/programming/language/java.png" width="101px" height="101px" preserveAspectRatio="xMinYMin meet" x="1177.5" y="-351"/>
<text text-anchor="middle" x="1228" y="-235.6" font-family="Sans-Serif" font-size="13.00" fill="#2d3436">Messaging Adapter</text>
</g>
<!-- c92424785aa9452cb39b2b78d26f73b0&#45;&gt;10bc62148f9743209f5f1687c06040c1 -->
<g id="edge15" class="edge">
<title>c92424785aa9452cb39b2b78d26f73b0&#45;&gt;10bc62148f9743209f5f1687c06040c1</title>
<path fill="none" stroke="#7b8894" d="M856.83,-901C856.83,-901 1228,-901 1228,-901 1228,-901 1228,-526.65 1228,-369.09"/>
<polygon fill="#7b8894" stroke="#7b8894" points="856.83,-897.5 846.83,-901 856.83,-904.5 856.83,-897.5"/>
</g>
<!-- 10be4a50b48b4cbaaab37e7a2e0dc666 -->
<g id="node7" class="node">
<title>10be4a50b48b4cbaaab37e7a2e0dc666</title>
<image xlink:href="/home/emumford/.local/lib/python3.13/site-packages/resources/programming/language/java.png" width="101px" height="101px" preserveAspectRatio="xMinYMin meet" x="457.5" y="-952"/>
<text text-anchor="middle" x="508" y="-836.6" font-family="Sans-Serif" font-size="13.00" fill="#2d3436">CompositePort</text>
</g>
<!-- 10be4a50b48b4cbaaab37e7a2e0dc666&#45;&gt;aac28102f5114c4889c41a924575e52b -->
<g id="edge7" class="edge">
<title>10be4a50b48b4cbaaab37e7a2e0dc666&#45;&gt;aac28102f5114c4889c41a924575e52b</title>
<path fill="none" stroke="#7b8894" d="M508,-832.81C508,-832.81 508,-789.22 508,-789.22"/>
<polygon fill="#7b8894" stroke="#7b8894" points="511.5,-789.22 508,-779.22 504.5,-789.22 511.5,-789.22"/>
</g>
<!-- 1ddd0fbfb2fa4206aacff8718a416acc -->
<g id="node16" class="node">
<title>1ddd0fbfb2fa4206aacff8718a416acc</title>
<image xlink:href="/home/emumford/.local/lib/python3.13/site-packages/resources/programming/language/java.png" width="101px" height="101px" preserveAspectRatio="xMinYMin meet" x="745.5" y="-351"/>
<text text-anchor="middle" x="796" y="-235.6" font-family="Sans-Serif" font-size="13.00" fill="#2d3436">PersistenceAdapter</text>
</g>
<!-- fbdb9dfb202444a7b1beab3bc94e7f14&#45;&gt;1ddd0fbfb2fa4206aacff8718a416acc -->
<g id="edge16" class="edge">
<title>fbdb9dfb202444a7b1beab3bc94e7f14&#45;&gt;1ddd0fbfb2fa4206aacff8718a416acc</title>
<path fill="none" stroke="#7b8894" d="M796,-440.81C796,-440.81 796,-369.32 796,-369.32"/>
<polygon fill="#7b8894" stroke="#7b8894" points="792.5,-440.81 796,-450.81 799.5,-440.81 792.5,-440.81"/>
</g>
<!-- bd77343a1db34ad2a5667f4637ee6144 -->
<g id="node17" class="node">
<title>bd77343a1db34ad2a5667f4637ee6144</title>
<image xlink:href="/home/emumford/.local/lib/python3.13/site-packages/resources/programming/language/java.png" width="101px" height="101px" preserveAspectRatio="xMinYMin meet" x="601.5" y="-351"/>
<text text-anchor="middle" x="652" y="-235.6" font-family="Sans-Serif" font-size="13.00" fill="#2d3436">NotificationAdapter</text>
</g>
<!-- 14520c640b2c499f9be4e576be40bc21&#45;&gt;bd77343a1db34ad2a5667f4637ee6144 -->
<g id="edge17" class="edge">
<title>14520c640b2c499f9be4e576be40bc21&#45;&gt;bd77343a1db34ad2a5667f4637ee6144</title>
<path fill="none" stroke="#7b8894" d="M652,-440.81C652,-440.81 652,-369.32 652,-369.32"/>
<polygon fill="#7b8894" stroke="#7b8894" points="648.5,-440.81 652,-450.81 655.5,-440.81 648.5,-440.81"/>
</g>
<!-- 267d27d32fae4acabdee27f5f77751b9 -->
<g id="node18" class="node">
<title>267d27d32fae4acabdee27f5f77751b9</title>
<image xlink:href="/home/emumford/.local/lib/python3.13/site-packages/resources/programming/language/java.png" width="101px" height="101px" preserveAspectRatio="xMinYMin meet" x="457.5" y="-351"/>
<text text-anchor="middle" x="508" y="-235.6" font-family="Sans-Serif" font-size="13.00" fill="#2d3436">EventAdapter</text>
</g>
<!-- 11f7ba8fb9bf4b22bae2abaaa19a2fa1&#45;&gt;267d27d32fae4acabdee27f5f77751b9 -->
<g id="edge18" class="edge">
<title>11f7ba8fb9bf4b22bae2abaaa19a2fa1&#45;&gt;267d27d32fae4acabdee27f5f77751b9</title>
<path fill="none" stroke="#7b8894" d="M508,-440.81C508,-440.81 508,-369.32 508,-369.32"/>
<polygon fill="#7b8894" stroke="#7b8894" points="504.5,-440.81 508,-450.81 511.5,-440.81 504.5,-440.81"/>
</g>
<!-- 7fca1f2f4bc342f0a8afe0b18eb6bcad -->
<g id="node19" class="node">
<title>7fca1f2f4bc342f0a8afe0b18eb6bcad</title>
<image xlink:href="/home/emumford/.local/lib/python3.13/site-packages/resources/programming/language/java.png" width="101px" height="101px" preserveAspectRatio="xMinYMin meet" x="313.5" y="-351"/>
<text text-anchor="middle" x="364" y="-235.6" font-family="Sans-Serif" font-size="13.00" fill="#2d3436">FileSystemAdapter</text>
</g>
<!-- cd93afd6ead943679308ab9b3c7cd307&#45;&gt;7fca1f2f4bc342f0a8afe0b18eb6bcad -->
<g id="edge19" class="edge">
<title>cd93afd6ead943679308ab9b3c7cd307&#45;&gt;7fca1f2f4bc342f0a8afe0b18eb6bcad</title>
<path fill="none" stroke="#7b8894" d="M364,-440.81C364,-440.81 364,-369.32 364,-369.32"/>
<polygon fill="#7b8894" stroke="#7b8894" points="360.5,-440.81 364,-450.81 367.5,-440.81 360.5,-440.81"/>
</g>
<!-- 4d00f00ab63f43fc8f3569e61231dd69 -->
<g id="node20" class="node">
<title>4d00f00ab63f43fc8f3569e61231dd69</title>
<image xlink:href="/home/emumford/.local/lib/python3.13/site-packages/resources/programming/language/java.png" width="101px" height="101px" preserveAspectRatio="xMinYMin meet" x="169.5" y="-351"/>
<text text-anchor="middle" x="220" y="-235.6" font-family="Sans-Serif" font-size="13.00" fill="#2d3436">CacheAdapter</text>
</g>
<!-- 8c298b687acc405ab96c850661bcfb40&#45;&gt;4d00f00ab63f43fc8f3569e61231dd69 -->
<g id="edge20" class="edge">
<title>8c298b687acc405ab96c850661bcfb40&#45;&gt;4d00f00ab63f43fc8f3569e61231dd69</title>
<path fill="none" stroke="#7b8894" d="M220,-440.81C220,-440.81 220,-369.32 220,-369.32"/>
<polygon fill="#7b8894" stroke="#7b8894" points="216.5,-440.81 220,-450.81 223.5,-440.81 216.5,-440.81"/>
</g>
<!-- fbf7aae3d1064f56870509154b4765f2 -->
<g id="node21" class="node">
<title>fbf7aae3d1064f56870509154b4765f2</title>
<image xlink:href="/home/emumford/.local/lib/python3.13/site-packages/resources/programming/framework/spring.png" width="101px" height="101px" preserveAspectRatio="xMinYMin meet" x="889.5" y="-160"/>
<text text-anchor="middle" x="940" y="-44.6" font-family="Sans-Serif" font-size="13.00" fill="#2d3436">Spring Framework</text>
</g>
<!-- 7c3a3eafb8584b7a8fa468a0a8a81097&#45;&gt;fbf7aae3d1064f56870509154b4765f2 -->
<g id="edge21" class="edge">
<title>7c3a3eafb8584b7a8fa468a0a8a81097&#45;&gt;fbf7aae3d1064f56870509154b4765f2</title>
<path fill="none" stroke="#7b8894" d="M940,-231.81C940,-231.81 940,-188.22 940,-188.22"/>
<polygon fill="#7b8894" stroke="#7b8894" points="943.5,-188.22 940,-178.22 936.5,-188.22 943.5,-188.22"/>
</g>
<!-- ec1be4ef881e43aca1b78622e014af44 -->
<g id="node22" class="node">
<title>ec1be4ef881e43aca1b78622e014af44</title>
<image xlink:href="/home/emumford/.local/lib/python3.13/site-packages/resources/onprem/database/postgresql.png" width="101px" height="101px" preserveAspectRatio="xMinYMin meet" x="745.5" y="-160"/>
<text text-anchor="middle" x="796" y="-44.6" font-family="Sans-Serif" font-size="13.00" fill="#2d3436">PostgreSQL</text>
</g>
<!-- 1ddd0fbfb2fa4206aacff8718a416acc&#45;&gt;ec1be4ef881e43aca1b78622e014af44 -->
<g id="edge22" class="edge">
<title>1ddd0fbfb2fa4206aacff8718a416acc&#45;&gt;ec1be4ef881e43aca1b78622e014af44</title>
<path fill="none" stroke="#7b8894" d="M796,-231.81C796,-231.81 796,-188.22 796,-188.22"/>
<polygon fill="#7b8894" stroke="#7b8894" points="799.5,-188.22 796,-178.22 792.5,-188.22 799.5,-188.22"/>
</g>
<!-- 5ab27543819743ba8ad3ef42f269265e -->
<g id="node24" class="node">
<title>5ab27543819743ba8ad3ef42f269265e</title>
<image xlink:href="/home/emumford/.local/lib/python3.13/site-packages/resources/onprem/queue/kafka.png" width="101px" height="101px" preserveAspectRatio="xMinYMin meet" x="601.5" y="-160"/>
<text text-anchor="middle" x="652" y="-44.6" font-family="Sans-Serif" font-size="13.00" fill="#2d3436">Message Broker</text>
</g>
<!-- bd77343a1db34ad2a5667f4637ee6144&#45;&gt;5ab27543819743ba8ad3ef42f269265e -->
<g id="edge25" class="edge">
<title>bd77343a1db34ad2a5667f4637ee6144&#45;&gt;5ab27543819743ba8ad3ef42f269265e</title>
<path fill="none" stroke="#7b8894" d="M668.83,-231.81C668.83,-231.81 668.83,-188.22 668.83,-188.22"/>
<polygon fill="#7b8894" stroke="#7b8894" points="672.33,-188.22 668.83,-178.22 665.33,-188.22 672.33,-188.22"/>
</g>
<!-- 267d27d32fae4acabdee27f5f77751b9&#45;&gt;5ab27543819743ba8ad3ef42f269265e -->
<g id="edge24" class="edge">
<title>267d27d32fae4acabdee27f5f77751b9&#45;&gt;5ab27543819743ba8ad3ef42f269265e</title>
<path fill="none" stroke="#7b8894" d="M508,-231.86C508,-216.67 508,-205 508,-205 508,-205 635.17,-205 635.17,-205 635.17,-205 635.17,-188.14 635.17,-188.14"/>
<polygon fill="#7b8894" stroke="#7b8894" points="638.67,-188.14 635.17,-178.14 631.67,-188.14 638.67,-188.14"/>
</g>
<!-- e8cbc536d0ba4ef9ba39bd3264e53c95 -->
<g id="node23" class="node">
<title>e8cbc536d0ba4ef9ba39bd3264e53c95</title>
<image xlink:href="/home/emumford/.local/lib/python3.13/site-packages/resources/generic/storage/storage.png" width="101px" height="101px" preserveAspectRatio="xMinYMin meet" x="457.5" y="-160"/>
<text text-anchor="middle" x="508" y="-44.6" font-family="Sans-Serif" font-size="13.00" fill="#2d3436">File System</text>
</g>
<!-- 7fca1f2f4bc342f0a8afe0b18eb6bcad&#45;&gt;e8cbc536d0ba4ef9ba39bd3264e53c95 -->
<g id="edge23" class="edge">
<title>7fca1f2f4bc342f0a8afe0b18eb6bcad&#45;&gt;e8cbc536d0ba4ef9ba39bd3264e53c95</title>
<path fill="none" stroke="#7b8894" d="M364,-231.91C364,-176.96 364,-109 364,-109 364,-109 447.23,-109 447.23,-109"/>
<polygon fill="#7b8894" stroke="#7b8894" points="447.23,-112.5 457.23,-109 447.23,-105.5 447.23,-112.5"/>
</g>
</g>
</svg>
