<?xml version="1.0" encoding="UTF-8" standalone="no"?>
<!DOCTYPE svg PUBLIC "-//W3C//DTD SVG 1.1//EN"
 "http://www.w3.org/Graphics/SVG/1.1/DTD/svg11.dtd">
<!-- Generated by graphviz version 2.43.0 (0)
 -->
<!-- Title: Samstraumr Clean Architecture Pages: 1 -->
<svg width="1006pt" height="941pt"
 viewBox="0.00 0.00 1006.00 941.00" xmlns="http://www.w3.org/2000/svg" xmlns:xlink="http://www.w3.org/1999/xlink">
<g id="graph0" class="graph" transform="scale(1 1) rotate(0) translate(144 797)">
<title>Samstraumr Clean Architecture</title>
<polygon fill="white" stroke="transparent" points="-144,144 -144,-797 862,-797 862,144 -144,144"/>
<text text-anchor="middle" x="359" y="-9" font-family="Sans-Serif" font-size="15.00" fill="#2d3436">Samstraumr Clean Architecture</text>
<g id="clust1" class="cluster">
<title>cluster_Core Domain</title>
<path fill="#e5f5fd" stroke="#aeb6be" d="M20,-260C20,-260 114,-260 114,-260 120,-260 126,-266 126,-272 126,-272 126,-422 126,-422 126,-428 120,-434 114,-434 114,-434 20,-434 20,-434 14,-434 8,-428 8,-422 8,-422 8,-272 8,-272 8,-266 14,-260 20,-260"/>
<text text-anchor="middle" x="55.5" y="-420.4" font-family="Sans-Serif" font-size="12.00" fill="#2d3436">Core Domain</text>
</g>
<g id="clust2" class="cluster">
<title>cluster_Use Cases</title>
<path fill="#e5f5fd" stroke="#aeb6be" d="M308,-471C308,-471 402,-471 402,-471 408,-471 414,-477 414,-483 414,-483 414,-633 414,-633 414,-639 408,-645 402,-645 402,-645 308,-645 308,-645 302,-645 296,-639 296,-633 296,-633 296,-483 296,-483 296,-477 302,-471 308,-471"/>
<text text-anchor="middle" x="335" y="-631.4" font-family="Sans-Serif" font-size="12.00" fill="#2d3436">Use Cases</text>
</g>
<g id="clust3" class="cluster">
<title>cluster_Interface Adapters</title>
<path fill="#e5f5fd" stroke="#aeb6be" d="M156,-252C156,-252 698,-252 698,-252 704,-252 710,-258 710,-264 710,-264 710,-451 710,-451 710,-457 704,-463 698,-463 698,-463 156,-463 156,-463 150,-463 144,-457 144,-451 144,-451 144,-264 144,-264 144,-258 150,-252 156,-252"/>
<text text-anchor="middle" x="208.5" y="-449.4" font-family="Sans-Serif" font-size="12.00" fill="#2d3436">Interface Adapters</text>
</g>
<g id="clust4" class="cluster">
<title>cluster_Input Adapters</title>
<path fill="#ebf3e7" stroke="#aeb6be" d="M452,-260C452,-260 690,-260 690,-260 696,-260 702,-266 702,-272 702,-272 702,-422 702,-422 702,-428 696,-434 690,-434 690,-434 452,-434 452,-434 446,-434 440,-428 440,-422 440,-422 440,-272 440,-272 440,-266 446,-260 452,-260"/>
<text text-anchor="middle" x="492.5" y="-420.4" font-family="Sans-Serif" font-size="12.00" fill="#2d3436">Input Adapters</text>
</g>
<g id="clust5" class="cluster">
<title>cluster_Output Adapters</title>
<path fill="#ebf3e7" stroke="#aeb6be" d="M164,-260C164,-260 402,-260 402,-260 408,-260 414,-266 414,-272 414,-272 414,-422 414,-422 414,-428 408,-434 402,-434 402,-434 164,-434 164,-434 158,-434 152,-428 152,-422 152,-422 152,-272 152,-272 152,-266 158,-260 164,-260"/>
<text text-anchor="middle" x="210" y="-420.4" font-family="Sans-Serif" font-size="12.00" fill="#2d3436">Output Adapters</text>
</g>
<g id="clust6" class="cluster">
<title>cluster_Frameworks &amp; Drivers</title>
<path fill="#e5f5fd" stroke="#aeb6be" d="M156,-33C156,-33 698,-33 698,-33 704,-33 710,-39 710,-45 710,-45 710,-232 710,-232 710,-238 704,-244 698,-244 698,-244 156,-244 156,-244 150,-244 144,-238 144,-232 144,-232 144,-45 144,-45 144,-39 150,-33 156,-33"/>
<text text-anchor="middle" x="218.5" y="-230.4" font-family="Sans-Serif" font-size="12.00" fill="#2d3436">Frameworks &amp; Drivers</text>
</g>
<g id="clust7" class="cluster">
<title>cluster_UI</title>
<path fill="#ebf3e7" stroke="#aeb6be" d="M452,-41C452,-41 690,-41 690,-41 696,-41 702,-47 702,-53 702,-53 702,-203 702,-203 702,-209 696,-215 690,-215 690,-215 452,-215 452,-215 446,-215 440,-209 440,-203 440,-203 440,-53 440,-53 440,-47 446,-41 452,-41"/>
<text text-anchor="middle" x="454.5" y="-201.4" font-family="Sans-Serif" font-size="12.00" fill="#2d3436">UI</text>
</g>
<g id="clust8" class="cluster">
<title>cluster_External Interfaces</title>
<path fill="#ebf3e7" stroke="#aeb6be" d="M164,-41C164,-41 402,-41 402,-41 408,-41 414,-47 414,-53 414,-53 414,-203 414,-203 414,-209 408,-215 402,-215 402,-215 164,-215 164,-215 158,-215 152,-209 152,-203 152,-203 152,-53 152,-53 152,-47 158,-41 164,-41"/>
<text text-anchor="middle" x="217" y="-201.4" font-family="Sans-Serif" font-size="12.00" fill="#2d3436">External Interfaces</text>
</g>
<!-- 6d568f868fc246edbb1fd72a0a176dc6 -->
<g id="node1" class="node">
<title>6d568f868fc246edbb1fd72a0a176dc6</title>
<image xlink:href="/home/emumford/.local/lib/python3.13/site-packages/resources/programming/language/java.png" width="101px" height="101px" preserveAspectRatio="xMinYMin meet" x="16.5" y="-387"/>
<text text-anchor="middle" x="67" y="-271.6" font-family="Sans-Serif" font-size="13.00" fill="#2d3436">Entities</text>
</g>
<!-- f52f223855f84690a40786fb74a0cfd3 -->
<g id="node2" class="node">
<title>f52f223855f84690a40786fb74a0cfd3</title>
<image xlink:href="/home/emumford/.local/lib/python3.13/site-packages/resources/programming/language/java.png" width="101px" height="101px" preserveAspectRatio="xMinYMin meet" x="304.5" y="-598"/>
<text text-anchor="middle" x="355" y="-482.6" font-family="Sans-Serif" font-size="13.00" fill="#2d3436">Use Cases</text>
</g>
<!-- f52f223855f84690a40786fb74a0cfd3&#45;&gt;6d568f868fc246edbb1fd72a0a176dc6 -->
<g id="edge5" class="edge">
<title>f52f223855f84690a40786fb74a0cfd3&#45;&gt;6d568f868fc246edbb1fd72a0a176dc6</title>
<path fill="none" stroke="#7b8894" d="M304.17,-570C221.5,-570 67,-570 67,-570 67,-570 67,-415.29 67,-415.29"/>
<polygon fill="#7b8894" stroke="#7b8894" points="70.5,-415.29 67,-405.29 63.5,-415.29 70.5,-415.29"/>
</g>
<!-- dd67204f013642b89a4e2a72fb9a14cf -->
<g id="node5" class="node">
<title>dd67204f013642b89a4e2a72fb9a14cf</title>
<image xlink:href="/home/emumford/.local/lib/python3.13/site-packages/resources/programming/language/java.png" width="101px" height="101px" preserveAspectRatio="xMinYMin meet" x="304.5" y="-387"/>
<text text-anchor="middle" x="355" y="-271.6" font-family="Sans-Serif" font-size="13.00" fill="#2d3436">Gateways</text>
</g>
<!-- f52f223855f84690a40786fb74a0cfd3&#45;&gt;dd67204f013642b89a4e2a72fb9a14cf -->
<g id="edge9" class="edge">
<title>f52f223855f84690a40786fb74a0cfd3&#45;&gt;dd67204f013642b89a4e2a72fb9a14cf</title>
<path fill="none" stroke="#7b8894" d="M355,-478.99C355,-478.99 355,-415.02 355,-415.02"/>
<polygon fill="#7b8894" stroke="#7b8894" points="358.5,-415.02 355,-405.02 351.5,-415.02 358.5,-415.02"/>
</g>
<!-- e7fc49dbb7d347dda922603e2fe3f024 -->
<g id="node6" class="node">
<title>e7fc49dbb7d347dda922603e2fe3f024</title>
<image xlink:href="/home/emumford/.local/lib/python3.13/site-packages/resources/programming/language/java.png" width="101px" height="101px" preserveAspectRatio="xMinYMin meet" x="160.5" y="-387"/>
<text text-anchor="middle" x="211" y="-271.6" font-family="Sans-Serif" font-size="13.00" fill="#2d3436">Repositories</text>
</g>
<!-- f52f223855f84690a40786fb74a0cfd3&#45;&gt;e7fc49dbb7d347dda922603e2fe3f024 -->
<g id="edge8" class="edge">
<title>f52f223855f84690a40786fb74a0cfd3&#45;&gt;e7fc49dbb7d347dda922603e2fe3f024</title>
<path fill="none" stroke="#7b8894" d="M304.23,-524C262.77,-524 211,-524 211,-524 211,-524 211,-415.25 211,-415.25"/>
<polygon fill="#7b8894" stroke="#7b8894" points="214.5,-415.25 211,-405.25 207.5,-415.25 214.5,-415.25"/>
</g>
<!-- fcaef39c00b242c2bed53a63d2db9df2 -->
<g id="node3" class="node">
<title>fcaef39c00b242c2bed53a63d2db9df2</title>
<image xlink:href="/home/emumford/.local/lib/python3.13/site-packages/resources/programming/language/java.png" width="101px" height="101px" preserveAspectRatio="xMinYMin meet" x="592.5" y="-387"/>
<text text-anchor="middle" x="643" y="-271.6" font-family="Sans-Serif" font-size="13.00" fill="#2d3436">Controllers</text>
</g>
<!-- fcaef39c00b242c2bed53a63d2db9df2&#45;&gt;f52f223855f84690a40786fb74a0cfd3 -->
<g id="edge3" class="edge">
<title>fcaef39c00b242c2bed53a63d2db9df2&#45;&gt;f52f223855f84690a40786fb74a0cfd3</title>
<path fill="none" stroke="#7b8894" d="M643,-405.29C643,-474.17 643,-570 643,-570 643,-570 415.83,-570 415.83,-570"/>
<polygon fill="#7b8894" stroke="#7b8894" points="415.83,-566.5 405.83,-570 415.83,-573.5 415.83,-566.5"/>
</g>
<!-- ed27bcc856804f1f988dd870a8020a23 -->
<g id="node4" class="node">
<title>ed27bcc856804f1f988dd870a8020a23</title>
<image xlink:href="/home/emumford/.local/lib/python3.13/site-packages/resources/programming/language/java.png" width="101px" height="101px" preserveAspectRatio="xMinYMin meet" x="448.5" y="-387"/>
<text text-anchor="middle" x="499" y="-271.6" font-family="Sans-Serif" font-size="13.00" fill="#2d3436">Presenters</text>
</g>
<!-- ed27bcc856804f1f988dd870a8020a23&#45;&gt;f52f223855f84690a40786fb74a0cfd3 -->
<g id="edge4" class="edge">
<title>ed27bcc856804f1f988dd870a8020a23&#45;&gt;f52f223855f84690a40786fb74a0cfd3</title>
<path fill="none" stroke="#7b8894" d="M499,-405.25C499,-458.77 499,-524 499,-524 499,-524 415.77,-524 415.77,-524"/>
<polygon fill="#7b8894" stroke="#7b8894" points="415.77,-520.5 405.77,-524 415.77,-527.5 415.77,-520.5"/>
</g>
<!-- f09d23b666924c5c82aff521b3caceb6 -->
<g id="node7" class="node">
<title>f09d23b666924c5c82aff521b3caceb6</title>
<image xlink:href="/home/emumford/.local/lib/python3.13/site-packages/resources/programming/framework/spring.png" width="101px" height="101px" preserveAspectRatio="xMinYMin meet" x="448.5" y="-168"/>
<text text-anchor="middle" x="499" y="-52.6" font-family="Sans-Serif" font-size="13.00" fill="#2d3436">Web UI</text>
</g>
<!-- ed27bcc856804f1f988dd870a8020a23&#45;&gt;f09d23b666924c5c82aff521b3caceb6 -->
<g id="edge10" class="edge">
<title>ed27bcc856804f1f988dd870a8020a23&#45;&gt;f09d23b666924c5c82aff521b3caceb6</title>
<path fill="none" stroke="#7b8894" d="M482.17,-267.81C482.17,-267.81 482.17,-196.32 482.17,-196.32"/>
<polygon fill="#7b8894" stroke="#7b8894" points="485.67,-196.32 482.17,-186.32 478.67,-196.32 485.67,-196.32"/>
</g>
<!-- d5ca8a48f2754ddfa267b509fd5f3fa2 -->
<g id="node10" class="node">
<title>d5ca8a48f2754ddfa267b509fd5f3fa2</title>
<image xlink:href="/home/emumford/.local/lib/python3.13/site-packages/resources/programming/language/java.png" width="101px" height="101px" preserveAspectRatio="xMinYMin meet" x="304.5" y="-168"/>
<text text-anchor="middle" x="355" y="-52.6" font-family="Sans-Serif" font-size="13.00" fill="#2d3436">External APIs</text>
</g>
<!-- dd67204f013642b89a4e2a72fb9a14cf&#45;&gt;d5ca8a48f2754ddfa267b509fd5f3fa2 -->
<g id="edge7" class="edge">
<title>dd67204f013642b89a4e2a72fb9a14cf&#45;&gt;d5ca8a48f2754ddfa267b509fd5f3fa2</title>
<path fill="none" stroke="#7b8894" d="M355,-267.81C355,-267.81 355,-196.32 355,-196.32"/>
<polygon fill="#7b8894" stroke="#7b8894" points="358.5,-196.32 355,-186.32 351.5,-196.32 358.5,-196.32"/>
</g>
<!-- cc3b49221fe446488192c2869fc66a66 -->
<g id="node9" class="node">
<title>cc3b49221fe446488192c2869fc66a66</title>
<image xlink:href="/home/emumford/.local/lib/python3.13/site-packages/resources/onprem/database/postgresql.png" width="101px" height="101px" preserveAspectRatio="xMinYMin meet" x="160.5" y="-168"/>
<text text-anchor="middle" x="211" y="-52.6" font-family="Sans-Serif" font-size="13.00" fill="#2d3436">Database</text>
</g>
<!-- e7fc49dbb7d347dda922603e2fe3f024&#45;&gt;cc3b49221fe446488192c2869fc66a66 -->
<g id="edge6" class="edge">
<title>e7fc49dbb7d347dda922603e2fe3f024&#45;&gt;cc3b49221fe446488192c2869fc66a66</title>
<path fill="none" stroke="#7b8894" d="M211,-267.81C211,-267.81 211,-196.32 211,-196.32"/>
<polygon fill="#7b8894" stroke="#7b8894" points="214.5,-196.32 211,-186.32 207.5,-196.32 214.5,-196.32"/>
</g>
<!-- f09d23b666924c5c82aff521b3caceb6&#45;&gt;fcaef39c00b242c2bed53a63d2db9df2 -->
<g id="edge1" class="edge">
<title>f09d23b666924c5c82aff521b3caceb6&#45;&gt;fcaef39c00b242c2bed53a63d2db9df2</title>
<path fill="none" stroke="#7b8894" d="M515.83,-186.23C515.83,-208.23 515.83,-227 515.83,-227 515.83,-227 626.17,-227 626.17,-227 626.17,-227 626.17,-257.77 626.17,-257.77"/>
<polygon fill="#7b8894" stroke="#7b8894" points="622.67,-257.77 626.17,-267.77 629.67,-257.77 622.67,-257.77"/>
</g>
<!-- 20ea591365a7408796279f3cc5988384 -->
<g id="node8" class="node">
<title>20ea591365a7408796279f3cc5988384</title>
<image xlink:href="/home/emumford/.local/lib/python3.13/site-packages/resources/programming/language/java.png" width="101px" height="101px" preserveAspectRatio="xMinYMin meet" x="592.5" y="-168"/>
<text text-anchor="middle" x="643" y="-52.6" font-family="Sans-Serif" font-size="13.00" fill="#2d3436">CLI</text>
</g>
<!-- 20ea591365a7408796279f3cc5988384&#45;&gt;fcaef39c00b242c2bed53a63d2db9df2 -->
<g id="edge2" class="edge">
<title>20ea591365a7408796279f3cc5988384&#45;&gt;fcaef39c00b242c2bed53a63d2db9df2</title>
<path fill="none" stroke="#7b8894" d="M659.83,-186.19C659.83,-186.19 659.83,-257.68 659.83,-257.68"/>
<polygon fill="#7b8894" stroke="#7b8894" points="656.33,-257.68 659.83,-267.68 663.33,-257.68 656.33,-257.68"/>
</g>
</g>
</svg>
