<?xml version="1.0" encoding="UTF-8" standalone="no"?>
<!DOCTYPE svg PUBLIC "-//W3C//DTD SVG 1.1//EN"
 "http://www.w3.org/Graphics/SVG/1.1/DTD/svg11.dtd">
<!-- Generated by graphviz version 2.43.0 (0)
 -->
<!-- Title: Samstraumr Detailed Port Interfaces Pages: 1 -->
<svg width="4478pt" height="577pt"
 viewBox="0.00 0.00 4478.00 577.00" xmlns="http://www.w3.org/2000/svg" xmlns:xlink="http://www.w3.org/1999/xlink">
<g id="graph0" class="graph" transform="scale(1 1) rotate(0) translate(144 433)">
<title>Samstraumr Detailed Port Interfaces</title>
<polygon fill="white" stroke="transparent" points="-144,144 -144,-433 4334,-433 4334,144 -144,144"/>
<text text-anchor="middle" x="2095" y="-9" font-family="Sans-Serif" font-size="15.00" fill="#2d3436">Samstraumr Detailed Port Interfaces</text>
<g id="clust1" class="cluster">
<title>cluster_Core Port Interfaces</title>
<path fill="#e5f5fd" stroke="#aeb6be" d="M20,-33C20,-33 4170,-33 4170,-33 4176,-33 4182,-39 4182,-45 4182,-45 4182,-269 4182,-269 4182,-275 4176,-281 4170,-281 4170,-281 20,-281 20,-281 14,-281 8,-275 8,-269 8,-269 8,-45 8,-45 8,-39 14,-33 20,-33"/>
<text text-anchor="middle" x="76.5" y="-267.4" font-family="Sans-Serif" font-size="12.00" fill="#2d3436">Core Port Interfaces</text>
</g>
<g id="clust2" class="cluster">
<title>cluster_NotificationPort</title>
<path fill="#ebf3e7" stroke="#aeb6be" d="M3340,-41C3340,-41 4162,-41 4162,-41 4168,-41 4174,-47 4174,-53 4174,-53 4174,-240 4174,-240 4174,-246 4168,-252 4162,-252 4162,-252 3340,-252 3340,-252 3334,-252 3328,-246 3328,-240 3328,-240 3328,-53 3328,-53 3328,-47 3334,-41 3340,-41"/>
<text text-anchor="middle" x="3382.5" y="-238.4" font-family="Sans-Serif" font-size="12.00" fill="#2d3436">NotificationPort</text>
</g>
<g id="clust3" class="cluster">
<title>cluster_Methods</title>
<path fill="#ece8f6" stroke="#aeb6be" d="M3484,-49C3484,-49 4154,-49 4154,-49 4160,-49 4166,-55 4166,-61 4166,-61 4166,-211 4166,-211 4166,-217 4160,-223 4154,-223 4154,-223 3484,-223 3484,-223 3478,-223 3472,-217 3472,-211 3472,-211 3472,-61 3472,-61 3472,-55 3478,-49 3484,-49"/>
<text text-anchor="middle" x="3506" y="-209.4" font-family="Sans-Serif" font-size="12.00" fill="#2d3436">Methods</text>
</g>
<g id="clust4" class="cluster">
<title>cluster_CachePort</title>
<path fill="#ebf3e7" stroke="#aeb6be" d="M2476,-41C2476,-41 3298,-41 3298,-41 3304,-41 3310,-47 3310,-53 3310,-53 3310,-240 3310,-240 3310,-246 3304,-252 3298,-252 3298,-252 2476,-252 2476,-252 2470,-252 2464,-246 2464,-240 2464,-240 2464,-53 2464,-53 2464,-47 2470,-41 2476,-41"/>
<text text-anchor="middle" x="2503" y="-238.4" font-family="Sans-Serif" font-size="12.00" fill="#2d3436">CachePort</text>
</g>
<g id="clust5" class="cluster">
<title>cluster_Methods</title>
<path fill="#ece8f6" stroke="#aeb6be" d="M2620,-49C2620,-49 3290,-49 3290,-49 3296,-49 3302,-55 3302,-61 3302,-61 3302,-211 3302,-211 3302,-217 3296,-223 3290,-223 3290,-223 2620,-223 2620,-223 2614,-223 2608,-217 2608,-211 2608,-211 2608,-61 2608,-61 2608,-55 2614,-49 2620,-49"/>
<text text-anchor="middle" x="2642" y="-209.4" font-family="Sans-Serif" font-size="12.00" fill="#2d3436">Methods</text>
</g>
<g id="clust6" class="cluster">
<title>cluster_FileSystemPort</title>
<path fill="#ebf3e7" stroke="#aeb6be" d="M1612,-41C1612,-41 2434,-41 2434,-41 2440,-41 2446,-47 2446,-53 2446,-53 2446,-240 2446,-240 2446,-246 2440,-252 2434,-252 2434,-252 1612,-252 1612,-252 1606,-252 1600,-246 1600,-240 1600,-240 1600,-53 1600,-53 1600,-47 1606,-41 1612,-41"/>
<text text-anchor="middle" x="1652" y="-238.4" font-family="Sans-Serif" font-size="12.00" fill="#2d3436">FileSystemPort</text>
</g>
<g id="clust7" class="cluster">
<title>cluster_Methods</title>
<path fill="#ece8f6" stroke="#aeb6be" d="M1756,-49C1756,-49 2426,-49 2426,-49 2432,-49 2438,-55 2438,-61 2438,-61 2438,-211 2438,-211 2438,-217 2432,-223 2426,-223 2426,-223 1756,-223 1756,-223 1750,-223 1744,-217 1744,-211 1744,-211 1744,-61 1744,-61 1744,-55 1750,-49 1756,-49"/>
<text text-anchor="middle" x="1778" y="-209.4" font-family="Sans-Serif" font-size="12.00" fill="#2d3436">Methods</text>
</g>
<g id="clust8" class="cluster">
<title>cluster_ValidationPort</title>
<path fill="#ebf3e7" stroke="#aeb6be" d="M892,-41C892,-41 1570,-41 1570,-41 1576,-41 1582,-47 1582,-53 1582,-53 1582,-240 1582,-240 1582,-246 1576,-252 1570,-252 1570,-252 892,-252 892,-252 886,-252 880,-246 880,-240 880,-240 880,-53 880,-53 880,-47 886,-41 892,-41"/>
<text text-anchor="middle" x="929.5" y="-238.4" font-family="Sans-Serif" font-size="12.00" fill="#2d3436">ValidationPort</text>
</g>
<g id="clust9" class="cluster">
<title>cluster_Methods</title>
<path fill="#ece8f6" stroke="#aeb6be" d="M1036,-49C1036,-49 1562,-49 1562,-49 1568,-49 1574,-55 1574,-61 1574,-61 1574,-211 1574,-211 1574,-217 1568,-223 1562,-223 1562,-223 1036,-223 1036,-223 1030,-223 1024,-217 1024,-211 1024,-211 1024,-61 1024,-61 1024,-55 1030,-49 1036,-49"/>
<text text-anchor="middle" x="1058" y="-209.4" font-family="Sans-Serif" font-size="12.00" fill="#2d3436">Methods</text>
</g>
<g id="clust10" class="cluster">
<title>cluster_PersistencePort</title>
<path fill="#ebf3e7" stroke="#aeb6be" d="M28,-41C28,-41 850,-41 850,-41 856,-41 862,-47 862,-53 862,-53 862,-240 862,-240 862,-246 856,-252 850,-252 850,-252 28,-252 28,-252 22,-252 16,-246 16,-240 16,-240 16,-53 16,-53 16,-47 22,-41 28,-41"/>
<text text-anchor="middle" x="70.5" y="-238.4" font-family="Sans-Serif" font-size="12.00" fill="#2d3436">PersistencePort</text>
</g>
<g id="clust11" class="cluster">
<title>cluster_Methods</title>
<path fill="#ece8f6" stroke="#aeb6be" d="M172,-49C172,-49 842,-49 842,-49 848,-49 854,-55 854,-61 854,-61 854,-211 854,-211 854,-217 848,-223 842,-223 842,-223 172,-223 172,-223 166,-223 160,-217 160,-211 160,-211 160,-61 160,-61 160,-55 166,-49 172,-49"/>
<text text-anchor="middle" x="194" y="-209.4" font-family="Sans-Serif" font-size="12.00" fill="#2d3436">Methods</text>
</g>
<!-- b6f2a209b87645e3b83f839e02951427 -->
<g id="node1" class="node">
<title>b6f2a209b87645e3b83f839e02951427</title>
<image xlink:href="/home/emumford/.local/lib/python3.13/site-packages/resources/programming/language/java.png" width="101px" height="101px" preserveAspectRatio="xMinYMin meet" x="3336.5" y="-176"/>
<text text-anchor="middle" x="3387" y="-60.6" font-family="Sans-Serif" font-size="13.00" fill="#2d3436">NotificationPort</text>
</g>
<!-- 3687fe4b4bc84587968f97cc7ade2eda -->
<g id="node2" class="node">
<title>3687fe4b4bc84587968f97cc7ade2eda</title>
<image xlink:href="/home/emumford/.local/lib/python3.13/site-packages/resources/programming/language/java.png" width="101px" height="101px" preserveAspectRatio="xMinYMin meet" x="4056.5" y="-176"/>
<text text-anchor="middle" x="4107" y="-60.6" font-family="Sans-Serif" font-size="13.00" fill="#2d3436">send()</text>
</g>
<!-- 1a1577e0b2dc4b538b13b1fdd7a02536 -->
<g id="node3" class="node">
<title>1a1577e0b2dc4b538b13b1fdd7a02536</title>
<image xlink:href="/home/emumford/.local/lib/python3.13/site-packages/resources/programming/language/java.png" width="101px" height="101px" preserveAspectRatio="xMinYMin meet" x="3912.5" y="-176"/>
<text text-anchor="middle" x="3963" y="-60.6" font-family="Sans-Serif" font-size="13.00" fill="#2d3436">sendBatch()</text>
</g>
<!-- 857ab6bbbb1140f38d0cbb0e1e3bf467 -->
<g id="node4" class="node">
<title>857ab6bbbb1140f38d0cbb0e1e3bf467</title>
<image xlink:href="/home/emumford/.local/lib/python3.13/site-packages/resources/programming/language/java.png" width="101px" height="101px" preserveAspectRatio="xMinYMin meet" x="3768.5" y="-176"/>
<text text-anchor="middle" x="3819" y="-60.6" font-family="Sans-Serif" font-size="13.00" fill="#2d3436">sendAsync()</text>
</g>
<!-- e194dc4659064f11aa1c3ac9db4e691e -->
<g id="node5" class="node">
<title>e194dc4659064f11aa1c3ac9db4e691e</title>
<image xlink:href="/home/emumford/.local/lib/python3.13/site-packages/resources/programming/language/java.png" width="101px" height="101px" preserveAspectRatio="xMinYMin meet" x="3624.5" y="-176"/>
<text text-anchor="middle" x="3675" y="-60.6" font-family="Sans-Serif" font-size="13.00" fill="#2d3436">register()</text>
</g>
<!-- 9e4696ee052542dc83783c3713d3ef49 -->
<g id="node6" class="node">
<title>9e4696ee052542dc83783c3713d3ef49</title>
<image xlink:href="/home/emumford/.local/lib/python3.13/site-packages/resources/programming/language/java.png" width="101px" height="101px" preserveAspectRatio="xMinYMin meet" x="3480.5" y="-176"/>
<text text-anchor="middle" x="3531" y="-60.6" font-family="Sans-Serif" font-size="13.00" fill="#2d3436">checkStatus()</text>
</g>
<!-- df83d6f8f82347e0b6bb81724c5d9f8a -->
<g id="node7" class="node">
<title>df83d6f8f82347e0b6bb81724c5d9f8a</title>
<image xlink:href="/home/emumford/.local/lib/python3.13/site-packages/resources/programming/language/java.png" width="101px" height="101px" preserveAspectRatio="xMinYMin meet" x="2472.5" y="-176"/>
<text text-anchor="middle" x="2523" y="-60.6" font-family="Sans-Serif" font-size="13.00" fill="#2d3436">CachePort</text>
</g>
<!-- 3f8609c0bf4f403ba7f661bf0d9ebeb9 -->
<g id="node8" class="node">
<title>3f8609c0bf4f403ba7f661bf0d9ebeb9</title>
<image xlink:href="/home/emumford/.local/lib/python3.13/site-packages/resources/programming/language/java.png" width="101px" height="101px" preserveAspectRatio="xMinYMin meet" x="3192.5" y="-176"/>
<text text-anchor="middle" x="3243" y="-60.6" font-family="Sans-Serif" font-size="13.00" fill="#2d3436">get()</text>
</g>
<!-- b183cc606b21486a92f72238394eb592 -->
<g id="node9" class="node">
<title>b183cc606b21486a92f72238394eb592</title>
<image xlink:href="/home/emumford/.local/lib/python3.13/site-packages/resources/programming/language/java.png" width="101px" height="101px" preserveAspectRatio="xMinYMin meet" x="3048.5" y="-176"/>
<text text-anchor="middle" x="3099" y="-60.6" font-family="Sans-Serif" font-size="13.00" fill="#2d3436">put()</text>
</g>
<!-- e4c3da01c7c4444a8708a28bee980f30 -->
<g id="node10" class="node">
<title>e4c3da01c7c4444a8708a28bee980f30</title>
<image xlink:href="/home/emumford/.local/lib/python3.13/site-packages/resources/programming/language/java.png" width="101px" height="101px" preserveAspectRatio="xMinYMin meet" x="2904.5" y="-176"/>
<text text-anchor="middle" x="2955" y="-60.6" font-family="Sans-Serif" font-size="13.00" fill="#2d3436">remove()</text>
</g>
<!-- ebfa1d94c08f4be4a3b712f8d10e0981 -->
<g id="node11" class="node">
<title>ebfa1d94c08f4be4a3b712f8d10e0981</title>
<image xlink:href="/home/emumford/.local/lib/python3.13/site-packages/resources/programming/language/java.png" width="101px" height="101px" preserveAspectRatio="xMinYMin meet" x="2760.5" y="-176"/>
<text text-anchor="middle" x="2811" y="-60.6" font-family="Sans-Serif" font-size="13.00" fill="#2d3436">clear()</text>
</g>
<!-- 48f07d219bd24df898489c05c4096aa0 -->
<g id="node12" class="node">
<title>48f07d219bd24df898489c05c4096aa0</title>
<image xlink:href="/home/emumford/.local/lib/python3.13/site-packages/resources/programming/language/java.png" width="101px" height="101px" preserveAspectRatio="xMinYMin meet" x="2616.5" y="-176"/>
<text text-anchor="middle" x="2667" y="-60.6" font-family="Sans-Serif" font-size="13.00" fill="#2d3436">contains()</text>
</g>
<!-- 3623e5f693334d20b3464bdb395755b7 -->
<g id="node13" class="node">
<title>3623e5f693334d20b3464bdb395755b7</title>
<image xlink:href="/home/emumford/.local/lib/python3.13/site-packages/resources/programming/language/java.png" width="101px" height="101px" preserveAspectRatio="xMinYMin meet" x="1608.5" y="-176"/>
<text text-anchor="middle" x="1659" y="-60.6" font-family="Sans-Serif" font-size="13.00" fill="#2d3436">FileSystemPort</text>
</g>
<!-- eec0506fc4a6433a8f258e22d7823ee4 -->
<g id="node14" class="node">
<title>eec0506fc4a6433a8f258e22d7823ee4</title>
<image xlink:href="/home/emumford/.local/lib/python3.13/site-packages/resources/programming/language/java.png" width="101px" height="101px" preserveAspectRatio="xMinYMin meet" x="2328.5" y="-176"/>
<text text-anchor="middle" x="2379" y="-60.6" font-family="Sans-Serif" font-size="13.00" fill="#2d3436">readFile()</text>
</g>
<!-- 8c90181be450425ba536cdfcbb62a3dd -->
<g id="node15" class="node">
<title>8c90181be450425ba536cdfcbb62a3dd</title>
<image xlink:href="/home/emumford/.local/lib/python3.13/site-packages/resources/programming/language/java.png" width="101px" height="101px" preserveAspectRatio="xMinYMin meet" x="2184.5" y="-176"/>
<text text-anchor="middle" x="2235" y="-60.6" font-family="Sans-Serif" font-size="13.00" fill="#2d3436">writeFile()</text>
</g>
<!-- be7d99faeb70485697ac905173d878b4 -->
<g id="node16" class="node">
<title>be7d99faeb70485697ac905173d878b4</title>
<image xlink:href="/home/emumford/.local/lib/python3.13/site-packages/resources/programming/language/java.png" width="101px" height="101px" preserveAspectRatio="xMinYMin meet" x="2040.5" y="-176"/>
<text text-anchor="middle" x="2091" y="-60.6" font-family="Sans-Serif" font-size="13.00" fill="#2d3436">deleteFile()</text>
</g>
<!-- 1859d05d4095491782327516afb8672d -->
<g id="node17" class="node">
<title>1859d05d4095491782327516afb8672d</title>
<image xlink:href="/home/emumford/.local/lib/python3.13/site-packages/resources/programming/language/java.png" width="101px" height="101px" preserveAspectRatio="xMinYMin meet" x="1896.5" y="-176"/>
<text text-anchor="middle" x="1947" y="-60.6" font-family="Sans-Serif" font-size="13.00" fill="#2d3436">listFiles()</text>
</g>
<!-- 9d019a52dcdc4e13928930dda46f7e1c -->
<g id="node18" class="node">
<title>9d019a52dcdc4e13928930dda46f7e1c</title>
<image xlink:href="/home/emumford/.local/lib/python3.13/site-packages/resources/programming/language/java.png" width="101px" height="101px" preserveAspectRatio="xMinYMin meet" x="1752.5" y="-176"/>
<text text-anchor="middle" x="1803" y="-60.6" font-family="Sans-Serif" font-size="13.00" fill="#2d3436">fileExists()</text>
</g>
<!-- 89717e578c7548beab3ae5869cf34bc3 -->
<g id="node19" class="node">
<title>89717e578c7548beab3ae5869cf34bc3</title>
<image xlink:href="/home/emumford/.local/lib/python3.13/site-packages/resources/programming/language/java.png" width="101px" height="101px" preserveAspectRatio="xMinYMin meet" x="888.5" y="-176"/>
<text text-anchor="middle" x="939" y="-60.6" font-family="Sans-Serif" font-size="13.00" fill="#2d3436">ValidationPort</text>
</g>
<!-- 16e33a3d402d41a1b8e8b6638ac4f3fc -->
<g id="node20" class="node">
<title>16e33a3d402d41a1b8e8b6638ac4f3fc</title>
<image xlink:href="/home/emumford/.local/lib/python3.13/site-packages/resources/programming/language/java.png" width="101px" height="101px" preserveAspectRatio="xMinYMin meet" x="1464.5" y="-176"/>
<text text-anchor="middle" x="1515" y="-60.6" font-family="Sans-Serif" font-size="13.00" fill="#2d3436">validate()</text>
</g>
<!-- 5ec6efc8f315489381c3ff3302432b79 -->
<g id="node21" class="node">
<title>5ec6efc8f315489381c3ff3302432b79</title>
<image xlink:href="/home/emumford/.local/lib/python3.13/site-packages/resources/programming/language/java.png" width="101px" height="101px" preserveAspectRatio="xMinYMin meet" x="1320.5" y="-176"/>
<text text-anchor="middle" x="1371" y="-60.6" font-family="Sans-Serif" font-size="13.00" fill="#2d3436">validateAll()</text>
</g>
<!-- 6dab671401eb4206b4b75a036dc0c606 -->
<g id="node22" class="node">
<title>6dab671401eb4206b4b75a036dc0c606</title>
<image xlink:href="/home/emumford/.local/lib/python3.13/site-packages/resources/programming/language/java.png" width="101px" height="101px" preserveAspectRatio="xMinYMin meet" x="1176.5" y="-176"/>
<text text-anchor="middle" x="1227" y="-60.6" font-family="Sans-Serif" font-size="13.00" fill="#2d3436">getViolations()</text>
</g>
<!-- fd236f4ae43842368da8a1f748ad9999 -->
<g id="node23" class="node">
<title>fd236f4ae43842368da8a1f748ad9999</title>
<image xlink:href="/home/emumford/.local/lib/python3.13/site-packages/resources/programming/language/java.png" width="101px" height="101px" preserveAspectRatio="xMinYMin meet" x="1032.5" y="-176"/>
<text text-anchor="middle" x="1083" y="-60.6" font-family="Sans-Serif" font-size="13.00" fill="#2d3436">isValid()</text>
</g>
<!-- bfca5e0547ae4ad8854cd47073086072 -->
<g id="node24" class="node">
<title>bfca5e0547ae4ad8854cd47073086072</title>
<image xlink:href="/home/emumford/.local/lib/python3.13/site-packages/resources/programming/language/java.png" width="101px" height="101px" preserveAspectRatio="xMinYMin meet" x="24.5" y="-176"/>
<text text-anchor="middle" x="75" y="-60.6" font-family="Sans-Serif" font-size="13.00" fill="#2d3436">PersistencePort</text>
</g>
<!-- 0068aadaaea54b65becae1c94be370c5 -->
<g id="node25" class="node">
<title>0068aadaaea54b65becae1c94be370c5</title>
<image xlink:href="/home/emumford/.local/lib/python3.13/site-packages/resources/programming/language/java.png" width="101px" height="101px" preserveAspectRatio="xMinYMin meet" x="744.5" y="-176"/>
<text text-anchor="middle" x="795" y="-60.6" font-family="Sans-Serif" font-size="13.00" fill="#2d3436">save()</text>
</g>
<!-- 443f413b46ef4f21a3ce82e9c991e26a -->
<g id="node26" class="node">
<title>443f413b46ef4f21a3ce82e9c991e26a</title>
<image xlink:href="/home/emumford/.local/lib/python3.13/site-packages/resources/programming/language/java.png" width="101px" height="101px" preserveAspectRatio="xMinYMin meet" x="600.5" y="-176"/>
<text text-anchor="middle" x="651" y="-60.6" font-family="Sans-Serif" font-size="13.00" fill="#2d3436">find()</text>
</g>
<!-- bd2486b73a0942d6a2e18870994ab877 -->
<g id="node27" class="node">
<title>bd2486b73a0942d6a2e18870994ab877</title>
<image xlink:href="/home/emumford/.local/lib/python3.13/site-packages/resources/programming/language/java.png" width="101px" height="101px" preserveAspectRatio="xMinYMin meet" x="456.5" y="-176"/>
<text text-anchor="middle" x="507" y="-60.6" font-family="Sans-Serif" font-size="13.00" fill="#2d3436">delete()</text>
</g>
<!-- cda24cc365b74767b5c923688a1c0593 -->
<g id="node28" class="node">
<title>cda24cc365b74767b5c923688a1c0593</title>
<image xlink:href="/home/emumford/.local/lib/python3.13/site-packages/resources/programming/language/java.png" width="101px" height="101px" preserveAspectRatio="xMinYMin meet" x="312.5" y="-176"/>
<text text-anchor="middle" x="363" y="-60.6" font-family="Sans-Serif" font-size="13.00" fill="#2d3436">query()</text>
</g>
<!-- 41b31d3fba6a4851bafba7cecb96039d -->
<g id="node29" class="node">
<title>41b31d3fba6a4851bafba7cecb96039d</title>
<image xlink:href="/home/emumford/.local/lib/python3.13/site-packages/resources/programming/language/java.png" width="101px" height="101px" preserveAspectRatio="xMinYMin meet" x="168.5" y="-176"/>
<text text-anchor="middle" x="219" y="-60.6" font-family="Sans-Serif" font-size="13.00" fill="#2d3436">transaction()</text>
</g>
</g>
</svg>
